<svg width="853" height="254" viewBox="0 0 853 254" fill="none" xmlns="http://www.w3.org/2000/svg">
<path d="M308.72 146.794V151.946L309.61 159.267L310.482 165.902C310.495 165.997 310.514 166.092 310.541 166.185L311.497 169.57M397.496 248.746L397.2 239.798V238.443M397.496 248.746L396.606 248.565M397.496 248.746L396.884 247.933M397.496 248.746L400.466 249.65M404.622 250.373L405.216 250.463M404.622 250.373L404.029 250.283M404.622 250.373L406.035 244.137M473.209 241.967L474.289 241.425M473.209 241.967L472.764 242.134M473.209 241.967H471.724M486.57 234.918L484.789 235.894M486.57 234.918H486.009M486.57 234.918L486.78 233.562M486.57 234.918L487.029 234.646M538.53 162.521L538.25 165.075C538.239 165.179 538.219 165.283 538.191 165.385L537.045 169.57L534.67 177.163L532.888 182.857L532.058 184.626M529.935 189.093L527.544 193.703L525.169 197.77L521.903 202.922L519.783 205.769M529.935 189.093L530.216 188.551L532.058 184.626M529.935 189.093H512.738M532.058 184.626H527.544M486.186 184.626H490.727M527.544 184.626V172.449C527.544 172.338 527.553 172.227 527.572 172.117L528.026 169.423M527.544 184.626H523.684M532.888 156.013L534.967 154.02M532.888 156.013L532.201 157.098M532.888 156.013L529.966 160.327M532.888 156.013L529.826 159.573C529.691 159.729 529.581 159.906 529.501 160.096L526.059 168.215M545.359 151.946L544.291 150.971C544.211 150.898 544.126 150.831 544.035 150.772L542.508 149.777M545.359 151.946L546.076 153.037C546.191 153.212 546.278 153.405 546.333 153.607L546.475 154.127C546.522 154.299 546.546 154.477 546.546 154.655V155.742V157.64M545.359 151.946L540.585 147.646C540.404 147.483 540.254 147.288 540.143 147.071L538.752 144.354M541.35 149.234L541.202 149.18M541.35 149.234V149.61M541.35 149.234L541.705 149.364M537.045 158.453V158.453C537.236 158.453 537.42 158.382 537.561 158.253L538.53 157.369L539.717 156.284L540.574 155.502C540.792 155.303 540.963 155.058 541.075 154.785L541.128 154.657M541.202 149.18L540.905 149.072M541.202 149.18L541.566 148.692M541.35 139.859L542.62 141.667C542.857 142.004 542.983 142.405 542.983 142.816V142.998M540.905 149.072V149.072C540.72 149.004 540.513 149.035 540.357 149.155L540.151 149.311M540.905 149.072L540.699 148.421M533.482 142.456H535.038C535.188 142.456 535.337 142.472 535.483 142.506L536.08 142.642C536.325 142.698 536.558 142.8 536.765 142.942L537.639 143.54L538.752 144.354M540.608 148.692L539.849 148.519M534.67 148.15H536.154H537.936M534.67 148.15L533.779 148.421M534.67 148.15H539.432M530.216 150.59L531.227 149.667C531.344 149.56 531.474 149.467 531.614 149.39L532.707 148.791C532.828 148.725 532.955 148.672 533.086 148.632L533.779 148.421M540.699 148.421L540.572 148.016M540.699 148.421L540.905 148.485M541.566 148.692L542.012 148.094M541.566 148.692L540.905 148.485M540.151 149.311L539.956 149.46M540.151 149.311L540.751 149.46M541.35 149.61V149.897M541.35 149.61L540.751 149.46M539.849 148.519L539.902 148.989M539.849 148.519L540.507 147.812M539.849 148.519L539.42 148.421M539.956 149.46L539.902 148.989M539.956 149.46L539.666 149.68M539.902 148.989L541.796 149.397M541.796 149.397L541.878 149.427C542.021 149.479 542.157 149.547 542.284 149.63L542.508 149.777M541.796 149.397L541.705 149.364M542.093 148.15L542.39 148.168M546.546 148.421L548.034 148.874C548.229 148.933 548.413 149.022 548.581 149.137L549.515 149.777L550.406 150.59L551 151.132M546.546 148.421L544.078 148.271M546.546 148.421L542.983 148.853M542.39 148.168L541.705 149.364M542.39 148.168L542.725 148.188M540.572 148.016L542.012 148.094M540.572 148.016L540.507 147.812M542.012 148.094L542.234 147.798M540.442 147.607L542.234 147.798M540.442 147.607L540.507 147.812M540.442 147.607L540.377 147.399M542.234 147.798L542.609 147.296M540.311 147.192L540.073 146.438C540.034 146.314 539.983 146.194 539.92 146.08L539.338 145.016C539.197 144.758 539.001 144.535 538.763 144.362L538.752 144.354M540.311 147.192L540.377 147.399M540.311 147.192L539.432 148.15M539.224 148.376L539.42 148.421M539.224 148.376L538.979 148.32M539.224 148.376L539.432 148.15M540.377 147.399L542.609 147.296M542.609 147.296L542.725 147.14M542.725 147.14V148.188M542.725 147.14L542.93 146.866M542.725 148.188L542.93 148.201M542.93 146.866V146.866C542.965 146.819 542.983 146.763 542.983 146.704V142.998M542.93 146.866L543.369 147.798M543.577 148.24L543.369 147.798M543.577 148.24L542.93 148.201M543.577 148.24L544.078 148.271M543.577 148.24L542.983 142.998M540.905 148.485L543.369 147.798M542.093 149.61L542.508 148.91M542.93 148.201L542.689 148.606M542.689 148.606L544.078 148.271M542.689 148.606L542.508 148.91M544.078 148.271L543.369 147.14M541.202 150.048L541.855 149.912M542.508 149.777L542.182 149.844M539.224 149.897H539.956M541.35 149.897H541.202M541.35 149.897V150.319M539.42 148.421L539.569 149.18M539.666 149.68L538.979 150.203M539.666 149.68L539.569 149.18M538.979 150.203L538.827 150.319L537.413 151.675M538.979 150.203L539.199 149.719M538.979 148.32L539.569 149.18M538.979 148.32L538.401 148.188M538.401 148.188V148.188C538.289 148.163 538.175 148.15 538.06 148.15H537.936M538.401 148.188L539.049 148.853C539.273 149.083 539.333 149.427 539.199 149.719V149.719M523.684 184.626V180.416L523.981 176.349L524.693 172.664M523.684 184.626H519.824M529.966 160.623L529.824 160.847C529.691 161.057 529.598 161.29 529.55 161.534L529.357 162.521M529.966 160.623L530.654 159.538M529.966 160.623L529.02 162.038M519.824 184.626H515.074M519.824 184.626V172.824M519.824 80.0911V102.868M515.074 184.626V113.714M515.074 184.626H495.181M515.074 113.714H524.278M515.074 113.714H509.729M519.824 172.824H490.727M519.824 172.824V169.028M490.727 172.824V184.626M490.727 172.824V169.028M490.727 184.626H495.181M504.385 113.714H499.04M504.385 113.714H509.729M504.385 113.714L502.39 117.51M495.181 184.626V158.834L496.071 151.675L497.259 144.896L498.743 138.117L502.009 128.356L505.572 120.492L509.729 113.714M509.729 113.714L512.401 110.189L516.164 105.96C516.229 105.887 516.299 105.819 516.374 105.756L519.824 102.868M502.39 117.51L500.822 120.492L497.556 128.356L496.286 132.152M502.39 117.51H519.824M519.824 117.51V132.152M519.824 117.51V102.868M496.286 132.152H519.824M496.286 132.152L495.016 135.948M519.824 132.152V135.948M519.824 135.948H495.016M519.824 135.948V150.59M495.016 135.948L494.29 138.117L492.805 144.896L491.808 150.59M491.808 150.59L491.618 151.675L491.28 154.386M491.808 150.59H519.824M519.824 150.59V154.386M519.824 154.386H491.28M519.824 154.386V169.028M491.28 154.386L490.727 158.834V169.028M490.727 169.028H519.824M518.067 208.074L518.016 207.26M518.067 208.074L518.672 207.26M518.067 208.074L517.152 209.302M493.696 209.158L494.438 208.48M493.696 209.158L494.087 209.429M493.696 209.158L492.805 209.023M514.133 212.683L510.917 216.208L503.791 222.716L500.228 225.627M514.133 212.683L516.36 210.243M514.133 212.683H513.416M503.494 212.683H502.603H500.526C500.328 212.683 500.132 212.654 499.943 212.597L497.556 211.87L495.599 210.976M503.494 212.683L504.484 211.328M503.494 212.683H504.088M505.276 203.735L501.416 202.476M505.276 203.735L505.721 204.549M505.276 203.735H506.166M510.323 203.735H507.057M510.323 203.735V204.549M510.323 203.735L511.214 204.142M515.074 209.158L514.183 207.531L513.721 206.478C513.634 206.278 513.514 206.093 513.367 205.932L512.352 204.82M515.074 209.158L515.121 209.701M515.074 209.158L515.395 209.429M516.36 210.243L516.855 209.701L517.152 209.302M516.36 210.243L516.039 209.972M515.717 209.701L515.878 209.836M515.717 209.701L515.168 210.243M515.717 209.701L515.556 209.565M512.698 212.683H513.416M512.698 212.683H510.323M512.698 212.683L515.168 210.243M513.416 212.683L516.039 209.972M516.039 209.972L515.878 209.836M517.992 206.879H518.956M517.992 206.879L518.016 207.26M517.992 206.879L517.982 206.718M518.956 206.879L518.672 207.26M518.956 206.879L517.954 206.269M518.956 206.879L519.527 206.112M518.016 207.26H518.672M517.954 206.269L517.982 206.718M517.954 206.269L517.937 205.994M517.982 206.718L518.613 206.471M519.527 206.112L518.613 206.471M519.527 206.112L519.783 205.769M517.937 205.994L518.613 206.471M517.937 205.994L517.881 205.091M515.878 209.836L516.848 209.429M517.152 209.302L516.848 209.429M510.323 212.683V211.87M510.323 212.683H509.432M510.323 211.87L509.432 212.683M510.323 211.87V205.905M509.432 212.683H504.682M504.484 211.328L504.682 211.056L504.807 210.884M504.484 211.328L504.088 212.683M504.088 212.683H504.682M504.807 210.884L505.036 210.571C505.193 210.356 505.403 210.185 505.645 210.074V210.074C506.151 209.843 506.494 209.359 506.545 208.805L506.705 207.054C506.741 206.658 506.658 206.261 506.467 205.912L505.721 204.549M504.807 210.884L504.682 212.683M490.43 208.661V208.661C490.286 208.638 490.231 208.842 490.367 208.895L494.587 210.514L495.599 210.976M490.43 208.661L496.368 210.514M490.43 208.661L492.805 209.023M496.368 210.514L498.097 209.386C498.328 209.236 498.525 209.04 498.676 208.809L499.953 206.865C500.134 206.59 500.244 206.276 500.273 205.949L500.525 203.193M496.368 210.514L495.984 210.745M500.525 203.193L500.606 202.226C500.632 201.926 501.069 201.921 501.101 202.22V202.22C501.112 202.317 501.178 202.399 501.271 202.429L501.416 202.476M500.525 203.193L501.416 202.476M495.599 210.976L495.984 210.745M495.984 210.745L494.087 209.429M494.438 208.48L494.849 208.105C495.067 207.906 495.239 207.661 495.351 207.388L495.921 205.998C496.02 205.757 496.071 205.499 496.071 205.239V203.162C496.071 203.002 496.052 202.844 496.015 202.689L495.571 200.867C495.509 200.613 495.398 200.373 495.243 200.161L493.696 198.041L492.019 196.255C491.95 196.181 491.874 196.112 491.794 196.049L489.836 194.516L488.241 193.545C488.117 193.47 487.986 193.408 487.849 193.361L485.842 192.674C485.734 192.637 485.629 192.591 485.529 192.536L484.789 192.131C484.423 191.93 484.195 191.545 484.195 191.127V191.127C484.195 190.709 484.423 190.324 484.789 190.123L485.679 189.636L486.715 189.068C487.009 188.907 487.34 188.822 487.676 188.822H490.205C490.354 188.822 490.504 188.839 490.65 188.872L491.366 189.036C491.533 189.074 491.694 189.133 491.846 189.213L493.696 190.178L495.67 191.305C495.934 191.455 496.229 191.544 496.532 191.564L500.228 191.805L508.372 192.602C508.485 192.613 508.597 192.633 508.706 192.663L511.046 193.304C511.351 193.388 511.633 193.543 511.866 193.756L514.856 196.487C515 196.619 515.124 196.771 515.225 196.938L516.715 199.434C516.808 199.589 516.879 199.757 516.927 199.931L517.692 202.723C517.728 202.855 517.75 202.991 517.759 203.127L517.881 205.091M494.438 208.48L494.087 209.429M494.438 208.48L492.805 209.023M505.721 204.549L506.018 204.007M506.166 203.735H507.057M506.166 203.735L506.018 204.007M507.057 203.735L506.018 204.007M510.323 204.549L511.214 204.142M510.323 204.549V205.362M511.214 204.142L511.771 204.396C511.991 204.497 512.189 204.641 512.352 204.82V204.82M510.323 205.362L510.38 205.153C510.511 204.675 511.013 204.401 511.486 204.549V204.549M510.323 205.362V205.905M512.352 204.82L511.486 204.549M511.214 204.278L510.917 204.82M510.323 205.905L510.917 204.82M510.917 204.82L511.486 204.549M515.168 210.243L515.121 209.701M515.121 209.701L514.777 210.884L515.395 209.429M515.395 209.429L515.556 209.565M516.848 209.429L515.556 209.565M517.881 205.091L518.556 205.769M519.23 206.447L518.556 205.769M518.556 205.769H519.783M534.373 113.171L535.561 117.781L537.342 123.475L538.233 128.085L538.827 132.152L539.124 136.761M528.138 163.357L528.428 162.923M528.138 163.357H528.666M528.138 163.357L527.687 164.032M529.194 163.357L529.304 162.792M529.194 163.357H528.666M529.194 163.357L529.02 164.246M528.516 162.792H529.304M528.516 162.792L528.428 162.923M528.516 162.792L528.878 162.249M529.304 162.792L529.357 162.521M529.357 162.521L526.973 165.503M526.973 165.503L527.162 164.942C527.218 164.775 527.297 164.615 527.395 164.469L527.544 164.246M526.973 165.503L526.848 165.874M528.428 162.923L528.445 165.399M528.456 167.13L528.445 165.399M528.456 167.13L528.297 167.944M528.456 167.13L529.02 164.246M528.456 167.13L526.516 166.859M528.878 162.249L528.609 164.514M528.878 162.249L529.02 162.038M528.026 169.423L528.138 168.757L528.297 167.944M528.026 169.423L528.536 165.128M526.059 168.215L524.872 171.74L524.693 172.664M526.059 168.215L528.666 163.357M526.059 168.215L526.516 166.859M527.544 164.246L528.445 165.399M527.544 164.246L527.687 164.032M527.544 164.246L532.201 157.098M527.544 164.246L527.301 166.746M526.848 165.874L528.609 164.514M526.848 165.874L526.516 166.859M526.848 165.874L529.966 160.327M528.609 164.514L528.536 165.128M526.653 166.588L528.536 165.128M527.687 164.032L527.992 165.988M528.297 167.944L528.085 166.588M526.516 166.859L527.509 166.273M527.992 165.988L527.509 166.273M527.992 165.988L528.085 166.588M527.509 166.273L528.085 166.588M527.509 166.273L527.301 166.746M529.02 164.246L530.654 159.538M530.654 159.538L532.201 157.098M529.02 162.038L534.967 154.02M534.967 154.02L537.413 151.675M537.413 151.675L538.189 151.132M539.956 149.897L538.189 151.132M539.956 149.897H541.202M538.189 151.132L538.979 150.809M541.202 149.897L539.432 150.623M538.979 150.809L541.35 150.319M538.979 150.809L539.432 150.623M541.35 150.319V151.675M533.779 148.421L537.936 148.15M542.508 148.91L542.983 148.853M541.35 151.675L541.855 149.912M541.35 151.675V153.844M541.855 149.912L542.182 149.844M541.35 153.844V153.844C541.35 154.023 541.315 154.2 541.247 154.366L541.128 154.657M541.35 153.844L541.914 151.132M542.182 149.844L541.97 150.861M541.128 154.657L540.833 150.59M540.751 149.46L540.833 150.59M542.983 148.853L541.97 150.861M541.97 150.861L541.914 151.132M539.199 149.719L540.833 150.59M539.432 150.623L541.914 151.132M528.297 162.792L529.966 160.327M524.693 172.664L527.301 166.746M526.356 141.371V98.3406C526.356 98.1067 526.315 97.8746 526.235 97.6548L525.762 96.3601L524.575 93.6486L523.696 91.7766C523.688 91.7594 523.677 91.744 523.663 91.7312V91.7312C523.565 91.642 523.628 91.4794 523.761 91.4794H526.356M530.513 133.779V98.3406C530.513 98.1067 530.554 97.8746 530.634 97.6548L531.055 96.5022C531.09 96.4076 531.131 96.3157 531.18 96.2274L532.591 93.6486L533.37 91.989C533.437 91.8472 533.403 91.6786 533.288 91.5729V91.5729C533.222 91.5128 533.136 91.4794 533.047 91.4794H530.513M526.356 91.4794V79.2777H525.466H526.653M526.356 91.4794H530.513M531.701 79.2777H530.513M530.513 79.2777V91.4794M530.513 79.2777H530.216M526.653 79.2777V73.8547H528.732M526.653 79.2777H530.216M530.216 79.2777V73.8547H528.732M528.732 73.8547V65.7202V65.449M484.789 235.894L485.448 234.918M484.789 235.894L483.007 236.87M498.743 215.395L492.222 224.885M498.447 227.083L498.15 227.325L497.556 227.744M498.447 227.083L497.556 227.194M498.447 227.083L500.228 225.627M490.025 228.139L495.984 227.827M490.025 228.139L490.291 227.744M490.025 228.139L490.673 228.058M490.025 228.139L489.288 228.287L488.552 228.435M490.025 228.139L485.922 228.646C485.42 228.709 485.129 228.094 485.495 227.744V227.744M490.025 228.139L489.75 228.546M438.47 213.226H439.691C440.058 213.226 440.418 213.327 440.731 213.517L441.693 214.103C441.918 214.24 442.113 214.42 442.268 214.632L442.924 215.53M443.221 217.835V216.441C443.221 216.113 443.117 215.795 442.924 215.53V215.53M443.221 217.835H438.47M443.221 217.835V220.547M443.221 220.547H438.47M443.221 220.547V223.529M443.221 223.529V224.019C443.221 224.216 443.337 224.394 443.518 224.472V224.472M443.221 223.529H442.924M438.47 223.529H442.924M442.924 223.529V225.698M442.924 226.512V225.698M442.924 226.512L443.221 226.828M442.924 226.512V215.53M462.52 237.9L458.66 237.938M462.52 237.9L461.333 237.539M462.52 237.9L464.005 237.879M481.622 237.629L480.335 237.647M481.622 237.629L480.384 238.307M481.622 237.629L483.007 236.87M480.335 237.647L480.384 238.307M480.335 237.647L476.772 240.178M480.335 237.647L479.766 237.655M480.384 238.307L477.96 237.681M480.384 238.307L479.766 238.646M485.448 234.918L485.814 234.375M485.448 234.918H486.009M485.814 234.375L486.009 234.918M485.814 234.375L487.164 232.376M485.814 234.375L487.074 233.887M486.009 234.918L486.78 233.562M434.61 238.171L456.582 237.959M442.033 241.967H467.271M470.24 241.967L472.318 242.3M470.24 241.967H469.201M470.24 241.967H471.724M472.318 242.3L472.764 242.134M472.318 242.3L471.428 242.633M467.865 243.964L466.677 244.408L463.411 245.764L455.988 247.933L448.268 249.831L442.033 250.915L435.204 251.729L429.86 251.886M467.865 243.964L468.162 243.853M467.865 243.964L468.811 243.59M474.289 241.425L469.757 243.216M474.289 241.425L475.584 240.774M468.162 241.967L472.764 242.134M468.162 241.967H469.201M468.162 241.967H467.271M469.201 241.967L469.757 242.134M471.428 242.633L470.24 243.077M471.428 242.633L470.314 242.3M470.24 243.077L468.162 243.853M470.24 243.077L470.277 242.688M470.314 242.3L470.277 242.688M470.314 242.3L469.757 242.134M468.162 243.853L470.277 242.688M470.277 242.688L468.774 242.328M469.757 242.134V243.216M469.757 243.216L468.811 243.59M469.757 243.216L469.266 242.772M467.271 241.967L468.774 242.328M468.774 242.328L469.266 242.772M468.811 243.59L469.266 242.772M471.724 241.967L475.584 240.774M475.584 240.774L476.772 240.178M458.66 237.938L460.145 237.716M458.66 237.938L458.067 237.944M461.333 237.539L460.739 237.358L459.7 236.906M461.333 237.539L460.145 237.716M459.254 236.712L459.7 237.214M459.254 236.712L458.66 236.454M459.254 236.712L459.7 236.906M460.145 237.716L459.7 237.214M458.067 237.944L456.582 237.959M458.067 237.944L458.973 237.539M459.7 237.214L459.254 237.413M458.66 236.454L454.504 234.646L451.238 233.02L448.116 231.205C448.02 231.15 447.929 231.086 447.843 231.015L444.705 228.41L443.221 226.828M458.66 236.454L459.254 237.413M458.66 236.454L465.489 237.858M459.254 237.413L458.973 237.539M456.582 237.959L458.973 237.539M459.7 236.906L464.005 237.879M464.005 237.879L465.489 237.858M465.489 237.858L477.366 237.689M442.924 225.698L443.221 225.085M443.518 224.472L443.221 225.085M443.518 224.472L444.409 224.861M443.518 224.472L443.369 225.65M443.221 226.828L443.369 225.65M443.221 225.085L444.409 224.861M444.409 224.861L444.705 224.991M443.369 225.65L444.705 224.991M444.705 224.991L449.878 227.25C449.992 227.3 450.111 227.339 450.233 227.367L457.012 228.915C457.121 228.94 457.232 228.955 457.343 228.962L461.926 229.223H473.506H481.622H482.71L484.343 229.088L485.16 229.02L485.976 228.952L486.57 228.833M491.618 217.293L486.57 224.885L485.861 226.151C485.741 226.365 485.661 226.599 485.626 226.842L485.495 227.744M497.556 227.744L495.984 227.827M497.556 227.744L496.578 228.435M495.599 229.125L491.618 231.935L490.673 232.493M495.599 229.125L497.556 227.194M495.599 229.125L496.578 228.435M497.556 227.194L496.368 227.343M495.984 227.827L496.578 228.435M496.368 227.343L500.228 225.627M496.368 227.343L492.513 227.827M491.321 227.976L490.291 227.744M491.321 227.976L490.673 228.058M491.321 227.976V227.353M491.321 227.976L492.513 227.827M490.291 227.744L492.222 224.885M490.673 228.058L491.321 226.731M490.673 228.058L489.75 228.546M492.222 224.885L491.321 226.731M491.321 226.731V227.353M491.321 227.353L492.513 227.827M488.552 228.435L489.014 228.693M488.552 228.435L486.57 228.833M489.476 228.952L489.014 228.693M489.476 228.952L489.014 229.636M489.476 228.952L489.75 228.546M487.645 231.664L489.014 229.636M487.645 231.664L487.164 232.376M487.645 231.664L488.552 229.695M489.014 228.693L488.863 229.02M485.495 227.744L488.369 228.833M488.863 229.02L486.57 228.833M488.863 229.02L488.369 228.833M488.863 229.02L488.552 229.695M489.014 229.636L486.78 233.562M490.673 232.493L487.645 234.283M490.673 232.493L487.914 233.562M487.164 232.376L487.093 233.562M487.029 234.646L487.074 233.887M487.029 234.646L487.645 234.283M487.074 233.887L487.645 234.283M487.074 233.887L487.093 233.562M487.074 233.887L487.914 233.562M487.093 233.562H487.645H487.914M488.369 228.833L488.552 229.695M477.96 237.681L478.553 237.673M477.96 237.681L477.366 237.689M477.96 237.681L479.131 238.307M476.772 240.178L478.553 239.283M478.553 237.673V239.283M478.553 237.673L479.766 237.655M478.553 239.283L479.147 238.985L479.766 238.646M479.766 238.646L479.131 238.307M477.366 237.689L479.131 238.307M479.766 237.655L483.007 236.87M429.86 251.886L429.637 251.893M429.86 251.886L429.563 249L429.266 246.113M427.967 238.391L428.407 241.967L429.304 247.384M427.967 238.391L427.454 236.002M427.967 238.391L428.708 242.347M444.112 189.636H444.625C444.874 189.636 445.122 189.682 445.354 189.773L446.798 190.338C446.986 190.412 447.161 190.513 447.318 190.638L451.831 194.245L452.425 194.787M444.112 189.636V185.568M444.112 189.636H442.925C442.727 189.636 442.531 189.665 442.342 189.722L442.06 189.808C441.846 189.873 441.644 189.974 441.463 190.106L440.457 190.842C440.321 190.941 440.198 191.057 440.091 191.187L437.58 194.245L434.135 198.964C434.056 199.071 433.967 199.171 433.868 199.261L430.157 202.651L426.247 205.456C426.083 205.574 425.903 205.666 425.711 205.729L422.943 206.649C422.804 206.695 422.66 206.725 422.515 206.74L420.062 206.989H418.544C418.177 206.989 417.818 207.09 417.504 207.281L417.093 207.531L416.113 208.202C415.975 208.297 415.849 208.409 415.739 208.535L414.717 209.701L413.827 210.785L412.82 211.934C412.7 212.071 412.561 212.192 412.409 212.291L410.686 213.415C410.603 213.469 410.515 213.518 410.424 213.559L408.779 214.31L407.165 214.802C407.053 214.835 406.946 214.879 406.842 214.931L404.325 216.208L401.95 217.293L400.598 218.116C400.316 218.288 400.081 218.526 399.914 218.811L398.575 221.089M398.575 221.089L398.387 223.529M398.575 221.089L398.213 223.838M398.387 223.529L397.852 224.478M398.387 223.529L398.575 226.783M397.2 238.443L397.793 236.816L398.538 235.228C398.635 235.023 398.696 234.802 398.718 234.576L398.962 232.125C398.975 231.998 398.975 231.871 398.964 231.745L398.684 228.681L398.59 227.054M397.2 238.443L397.316 239.527M396.606 248.565L392.152 247.662L385.917 245.764L383.838 245.064M396.606 248.565L396.884 247.933M400.466 239.798L399.212 242.645M400.466 239.798L399.872 240.834M400.466 239.798L400.795 239.256L401.455 238.171M403.435 234.918L403.732 234.425L404.029 233.932M403.435 234.918L401.455 238.171M403.435 234.918L403.414 236.002M406.745 229.088L406.953 229.215M406.745 229.088L405.047 231.732M406.745 229.088L408.527 230.172M407.591 221.902L406.998 226.783L406.953 229.215M406.953 229.215L408.527 230.172M408.527 230.172L408.72 231.727C408.759 232.042 408.722 232.361 408.614 232.659L407.888 234.646L406.998 238.443L406.483 241.967L406.404 242.51M408.527 230.172L410.264 230.579L412.936 230.85H418.874M406.404 242.51L406.281 243.052M406.404 242.51L405.473 248.746M405.216 250.463L405.473 248.746M405.216 250.463L405.81 250.554M404.029 250.283L403.435 250.192M404.029 250.283L405.605 245.221M406.281 243.052L406.035 244.137M406.281 243.052L406.045 243.808L405.81 244.564M403.435 250.192L403.138 250.147M403.435 250.192L403.732 249.489L404.274 248.204M405.81 244.564L404.732 247.119M405.81 244.564L405.605 245.221M403.138 250.147L401.202 249.853C401.107 249.838 401.013 249.817 400.921 249.789L400.466 249.65M403.138 250.147V250.147C403.141 249.97 403.005 249.821 402.828 249.809L402.544 249.79M404.029 233.932L404.151 241.068M404.029 233.932L405.047 231.732M404.274 248.204L404.732 247.119M404.274 248.204L404.218 244.95M404.274 248.204L402.544 249.79M404.151 241.068L404.218 244.95M404.151 241.068L404.274 242.347M404.732 247.119L404.622 245.98M404.218 244.95L404.912 245.086M405.605 245.221L404.912 245.086M404.622 245.98L406.035 244.137M404.622 245.98L404.55 245.221L404.274 242.347M404.912 245.086L404.593 243.716L404.274 242.347M405.473 248.746L405.734 250.147M405.81 250.554L405.734 250.147M405.81 250.554L406.79 250.703M405.734 250.147L406.79 250.703M406.79 250.703L409.967 251.187L414.42 251.729L417.093 251.791M396.884 247.933L397.959 245.492M400.466 249.65L402.544 249.79M397.959 245.492L397.696 243.052M397.959 245.492L399.212 242.645M397.2 245.492L399.27 241.883M397.696 243.052L397.316 239.527M397.696 243.052L398.238 242.907M399.212 242.645L398.238 242.907M397.696 243.594L398.238 242.907M399.872 240.834L398.238 242.907M399.872 240.834L399.27 241.883M397.316 239.527L397.959 241.883M398.238 242.907L398.098 242.395L397.959 241.883M397.959 241.883H399.27M401.455 238.171L402.679 236.816M403.414 236.002L403.046 236.409M403.414 236.002L403.4 236.67M402.679 236.816H403.385C403.473 236.816 403.487 236.689 403.4 236.67V236.67M402.679 236.816L403.046 236.409M403.046 236.409L403.4 236.67M402.863 236.612L405.047 231.732M418.874 230.85V238.985M418.874 230.85L419.171 230.308M418.874 251.833L418.429 251.823M418.874 251.833V251.374M418.874 251.833L419.425 251.846M418.874 249.288V250.915M418.874 249.288L419.001 245.919M418.874 249.288L420.062 244.95M420.656 242.781L417.983 251.812M420.656 242.781L420.359 243.866M420.656 242.781L420.455 243.502M420.656 242.781L420.533 243.052M426.127 228.41L425.88 229.199C425.765 229.569 425.759 229.964 425.864 230.337L427.454 236.002M426.127 228.41L427.393 224.363C427.454 224.17 427.485 223.969 427.485 223.766V221.264C427.485 220.97 427.42 220.68 427.295 220.414L426.594 218.92L426.293 218.37C425.931 217.709 425.971 216.901 426.396 216.28L427.082 215.277C427.152 215.175 427.232 215.08 427.319 214.992L436.554 205.768C436.644 205.679 436.725 205.581 436.796 205.475L440.549 199.939L442.099 196.872C442.251 196.572 442.476 196.315 442.754 196.124L443.05 195.921C443.355 195.713 443.715 195.601 444.085 195.601V195.601C444.299 195.601 444.512 195.638 444.713 195.712L445.733 196.085C445.84 196.124 445.949 196.153 446.06 196.174L447.199 196.382C447.318 196.403 447.438 196.414 447.559 196.414H452.722M426.127 228.41L424.069 232.748M423.555 233.833L423.169 234.646M423.555 233.833L423.667 234.074C423.818 234.4 423.513 234.751 423.169 234.646V234.646M423.555 233.833L424.069 232.748M429.266 246.113L428.041 241.967M429.266 246.113L428.708 242.347M428.969 251.913L426 252L420.062 251.861M428.969 251.913L429.637 251.893M428.969 251.913V251.913C428.974 251.813 428.894 251.73 428.795 251.732L420.062 251.861M429.637 251.893L429.304 247.384M428.041 241.967L427.716 238.391L427.585 237.197L427.454 236.002M428.041 241.967L428.708 242.347M427.454 236.002L427.611 240.069M428.586 243.052L425.632 237.087L427.967 241.154M428.586 243.052L427.611 240.069M428.586 243.052L428.708 242.347M427.611 240.069L427.002 239.256L424.521 235.326C424.351 235.058 424.248 234.753 424.22 234.436L424.069 232.748M423.169 234.646L422.226 236.635C422.169 236.755 422.124 236.881 422.092 237.009L421.195 240.612L420.455 243.502M428.708 242.347L429.304 247.384M417.983 251.812L418.874 250.915M417.983 251.812L418.429 251.823M417.983 251.812L417.538 251.802M418.874 250.915V251.374M418.429 251.823L418.874 249.619M419.001 245.919L419.145 246.094M419.001 245.919V242.394M419.001 245.919L419.468 245.492M417.093 251.791L418.874 249.619M417.093 251.791L417.538 251.802M418.874 249.619L419.145 246.094M418.874 249.619V251.374M418.874 249.619L419.001 250.733M417.538 251.802L420.062 244.95M420.062 244.95L419.468 245.492M420.062 244.95L420.359 243.866M419.145 246.094L420.533 243.052M419.001 242.394L419.171 244.001M419.001 242.394L418.874 238.985M419.468 245.492L419.252 244.408M419.171 244.001L419.252 244.408M419.171 244.001L419.145 245.492M420.359 243.866L419.145 245.492M419.252 244.408L419.145 245.492M420.455 243.502L419.145 245.492M418.874 238.985L419.425 243.052M419.145 245.492L419.425 243.052M419.425 243.052H420.533M419.425 251.846L419.001 250.733M419.425 251.846L420.062 251.861M419.001 250.733L420.062 251.861M390.667 234.918L394.688 230.197C394.778 230.091 394.858 229.975 394.924 229.852L397.023 225.97M398.213 223.838L397.023 225.97M398.213 223.838L397.584 224.953M398.213 223.838L398.59 227.054M397.852 224.478L398.213 225.631M397.852 224.478L397.584 224.953M398.575 226.783L398.213 225.631M398.575 226.783L398.59 227.054M397.023 225.97L398.213 225.631M398.213 225.631L397.584 224.953M452.425 194.787L452.985 195.299C453.008 195.319 453.029 195.342 453.048 195.365L453.156 195.497C453.457 195.863 453.196 196.414 452.722 196.414V196.414M452.425 194.787L452.722 196.414M452.128 214.852H486.57M484.789 210.243H481.819M444.705 210.243H457.176M457.176 210.243L455.518 208.729C455.436 208.654 455.36 208.572 455.291 208.484L454.243 207.144C454.025 206.865 453.884 206.533 453.836 206.183L453.613 204.549V204.549C453.613 204.406 453.74 204.297 453.881 204.318L457.176 204.82L461.333 205.091L470.24 205.33M457.176 210.243H480.632M480.632 210.243L481.216 209.023M480.632 210.243H481.819M383.838 245.064L380.276 243.866L373.743 241.154L368.102 238.443L361.57 234.918L360.712 234.375M383.838 245.064V234.491C383.838 233.652 384.467 232.948 385.3 232.853V232.853M382.651 220.275L383.191 223.236C383.227 223.431 383.282 223.622 383.355 223.807L384.432 226.512L386.214 230.85L386.433 231.651C386.483 231.836 386.475 232.032 386.41 232.212V232.212C386.29 232.541 385.994 232.773 385.646 232.813L385.3 232.853M382.651 220.275L387.995 214.039L388.292 213.768M382.651 220.275L380.276 221.36L378.499 222.287C378.298 222.392 378.087 222.473 377.868 222.531L376.119 222.987L372.565 223.736C372.361 223.779 372.154 223.8 371.946 223.8H371.071M371.071 223.8V224.869C371.071 225.232 370.956 225.585 370.742 225.879V225.879C370.568 226.116 370.337 226.305 370.07 226.427L369.74 226.578C369.45 226.71 369.121 226.732 368.817 226.639V226.639C368.546 226.557 368.309 226.388 368.142 226.159L368.099 226.1C367.908 225.839 367.805 225.524 367.805 225.201V225.156V212.357C367.805 212.215 367.841 212.076 367.909 211.952V211.952C368.031 211.728 368.248 211.572 368.498 211.526L369.35 211.371C369.507 211.342 369.667 211.328 369.828 211.328H370.181M371.071 223.8V212.141M371.071 208.345L368.928 206.632C368.778 206.512 368.591 206.447 368.399 206.447V206.447M371.071 208.345L371.623 208.093C372.036 207.904 372.377 207.588 372.594 207.19V207.19C372.764 206.88 372.853 206.529 372.853 206.176V206.176M371.071 208.345V208.616M363.648 203.735L364.279 203.927C364.45 203.979 364.608 204.069 364.74 204.19V204.19C364.991 204.419 365.133 204.742 365.133 205.08V205.091V205.362M363.648 203.735H361.57M363.648 203.735V201.295M365.133 205.769V206.447M365.133 205.769H367.705C368.337 205.769 368.941 205.508 369.374 205.047V205.047C369.515 204.896 369.676 204.766 369.852 204.658L370.224 204.432C370.39 204.331 370.58 204.278 370.774 204.278V204.278M365.133 205.769V205.362M365.133 206.447H368.399M365.133 206.447H364.242M370.774 204.278V204.278C370.97 204.278 371.163 204.32 371.341 204.401L371.416 204.435C371.581 204.51 371.733 204.611 371.867 204.733L371.962 204.82L372.013 204.866C372.37 205.192 372.642 205.599 372.808 206.053L372.853 206.176M370.774 204.278V201.024M372.853 206.176H376.416H376.713M368.399 206.447L371.071 208.616M371.071 208.616V210.514M370.329 211.328H371.071M370.329 211.328L371.071 212.141M370.329 211.328H370.181M371.071 211.328V212.141M371.071 211.328V210.514M370.181 211.328L371.071 210.514M364.242 206.447L365.133 205.362M364.242 206.447H361.867M351.772 206.447H350.204C350.063 206.447 349.922 206.426 349.786 206.385L349.711 206.362C349.326 206.245 349.019 205.953 348.881 205.575V205.575C348.829 205.434 348.803 205.286 348.803 205.136V204.449C348.803 204.345 348.864 204.25 348.959 204.206V204.206L349.397 204.007L349.86 203.865C350.143 203.779 350.438 203.735 350.734 203.735H361.57M351.772 206.447V208.213C351.772 208.48 351.808 208.747 351.878 209.005L352.069 209.701L352.873 212.15C352.931 212.324 353.004 212.493 353.092 212.654L353.85 214.039L355.929 217.293M351.772 206.447H361.867M361.867 206.447V210.823C361.867 210.978 361.855 211.133 361.831 211.287L361.57 212.954L360.976 216.751L358.601 225.698L356.981 229.766M356.226 231.664L356.981 229.766M358.304 232.853L357.71 232.477L354.939 230.579M358.304 232.853L360.712 234.375M358.304 232.853H361.57M385.3 232.853H361.57M360.712 234.375L361.57 232.853M354.939 230.579L354.147 230.037L349.1 226.241L344.349 222.445L344.052 222.174M354.939 230.579L356.981 229.766M344.052 222.174L339.302 217.835L336.333 214.581L333.957 211.87L330.691 208.074L328.316 205.091L326.238 202.139M344.052 222.174V216.751L343.755 212.412L342.865 203.193L341.7 188.568C341.685 188.378 341.711 188.187 341.776 188.009V188.009M343.162 185.026L342.865 185.568M341.776 188.009L342.219 186.795C342.253 186.7 342.295 186.609 342.343 186.52L342.865 185.568M341.776 188.009H326.238M326.238 188.009V198.312M326.238 188.009L325.05 185.406M326.238 202.139L325.644 201.295L324.04 198.855M326.238 202.139V198.312M324.04 198.855L322.971 197.228L320.596 192.889L317.924 187.738L315.549 182.315L312.876 174.451L311.497 169.57M324.04 198.855L326.238 198.312M324.456 184.213V181.874C324.456 180.77 325.351 179.874 326.456 179.874H327.574M324.456 184.213L325.05 185.406M324.456 184.213H326.238M343.755 184.213H343.458H341.776M343.755 184.213V181.874C343.755 180.77 342.86 179.874 341.755 179.874H340.489M343.755 184.213L342.865 185.568M324.159 184.755V184.755C324.521 184.755 324.849 184.966 324.999 185.295L325.05 185.406M325.05 185.406L326.238 184.213M326.238 184.213H330.691M330.691 179.874V184.213M330.691 179.874H337.52M330.691 179.874H327.574M330.691 184.213H337.52M337.52 179.874V184.213M337.52 179.874H340.489M337.52 184.213H341.776M342.865 185.568L341.776 184.213M376.713 206.176V207.803V207.803C376.713 207.979 376.757 208.155 376.842 208.31V208.31C376.951 208.509 377.121 208.667 377.327 208.761L377.368 208.78C377.523 208.851 377.691 208.887 377.862 208.887H378.037H380.869M376.713 206.176H381.463M380.869 208.887H391.773C392.023 208.887 392.27 208.834 392.497 208.73L392.554 208.704C392.681 208.646 392.798 208.568 392.902 208.474L393.054 208.335C393.236 208.168 393.34 207.933 393.34 207.687V207.687C393.34 207.584 393.322 207.482 393.286 207.386L393.15 207.011C393.079 206.818 392.964 206.646 392.813 206.508V206.508C392.579 206.294 392.273 206.176 391.956 206.176H389.777M380.869 208.887L381.76 217.022M361.57 203.735L363.648 201.295M363.648 201.295L364.539 200.482L366.024 199.126L368.062 197.73C368.286 197.577 368.529 197.454 368.785 197.367L370.774 196.685M370.774 196.685V201.024M370.774 196.685V188.822M370.774 201.024H373.07C373.312 201.024 373.546 200.933 373.724 200.77V200.77C373.926 200.586 374.04 200.326 374.04 200.054V199.668V197.77M371.071 186.517L371.111 186.463C371.278 186.234 371.515 186.066 371.786 185.984V185.984C372.091 185.891 372.419 185.913 372.709 186.045L372.853 186.111M371.071 186.517V186.517C370.878 186.782 370.774 187.1 370.774 187.428V188.822M371.071 186.517L372.853 186.111M372.853 186.111L373.306 186.318C373.399 186.36 373.485 186.417 373.561 186.486V186.486C373.866 186.765 374.04 187.16 374.04 187.574V197.77M370.774 188.822H367.658C367.362 188.822 367.067 188.866 366.784 188.952L363.899 189.831C363.732 189.881 363.57 189.946 363.415 190.025L361.251 191.123C361.068 191.216 360.896 191.327 360.736 191.455L358.601 193.161L355.632 195.872M374.04 197.77L376.184 198.993C376.338 199.081 376.484 199.183 376.621 199.297L378.037 200.482L379.747 202.153C379.901 202.304 380.038 202.47 380.157 202.651L380.584 203.302C380.773 203.589 380.911 203.906 380.992 204.24L381.463 206.176M381.463 206.176H389.777M379.682 190.72L384.574 193.947C384.873 194.144 385.134 194.393 385.345 194.682L386.808 196.685L388.292 199.126L389.361 201.565C389.44 201.746 389.501 201.934 389.543 202.127L389.707 202.876C389.753 203.087 389.777 203.302 389.777 203.518V206.176M333.122 202.139V202.139C333.276 201.95 333.506 201.837 333.749 201.837H333.957H334.104C334.392 201.837 334.669 201.945 334.881 202.139V202.139M333.122 202.139C332.88 202.436 332.497 202.888 332.176 203.193V203.193C331.987 203.366 331.879 203.61 331.879 203.866V204.045C331.879 204.773 332.469 205.362 333.196 205.362H334.53C335.362 205.362 336.036 204.688 336.036 203.857V203.857C336.036 203.434 335.858 203.031 335.545 202.745L334.881 202.139M333.122 202.139H334.881M327.574 179.874V169.57M327.574 169.57L325.644 165.774M327.574 169.57H340.489M325.644 165.774H342.271H342.568M325.644 165.774L333.957 159.809M342.568 165.774L340.489 169.57M342.568 165.774L333.957 159.809M340.489 169.57V179.874M333.957 159.809V157.098M333.957 157.098V154.705C333.957 153.63 333.086 152.759 332.011 152.759H329.821C329.089 152.759 328.678 153.602 329.129 154.179V154.179C329.354 154.467 329.378 154.864 329.188 155.176L329.088 155.341C328.619 156.111 329.174 157.098 330.076 157.098H333.957ZM470.24 205.33L471.428 205.362L477.663 205.633L479.72 205.744C481.144 205.82 482.032 207.319 481.416 208.605L481.216 209.023M470.24 205.33V201.837M470.24 179.332H468.755M470.24 179.332V177.773M470.24 179.332V181.772M470.24 176.214V174.607C470.24 173.827 469.523 173.244 468.76 173.403V173.403C467.491 173.666 467.439 175.458 468.689 175.795L470.24 176.214ZM470.24 176.214V177.773M468.755 179.332L470.24 177.773M468.755 179.332L467.271 180.145M468.755 179.332L468.477 180.688M470.24 201.837V196.957M470.24 201.837L469.89 201.024M468.14 196.957L467.137 194.624C467.029 194.374 466.974 194.105 466.974 193.833V191.805L467.271 188.28L467.865 183.67L468.171 182.179M468.14 196.957H470.24M468.14 196.957L469.015 198.99M470.24 196.957V182.586M469.89 201.024H477.547C478.996 201.024 479.964 199.531 479.373 198.208L472.027 181.772M469.89 201.024H467.865M469.89 201.024L469.015 198.99M470.24 177.773L472.027 181.772M467.271 180.145L464.701 181.553C464.438 181.697 464.211 181.899 464.036 182.143L459.531 188.436C459.349 188.69 459.229 188.983 459.181 189.291L458.684 192.465C458.668 192.567 458.66 192.67 458.66 192.774V198.586C458.66 198.764 458.684 198.942 458.731 199.114L458.845 199.528C458.919 199.799 459.05 200.052 459.228 200.269L459.248 200.293C459.628 200.756 460.195 201.024 460.793 201.024H467.865M467.271 180.145L468.477 180.688M468.477 180.688L468.171 182.179M468.477 180.688L470.24 181.772M468.171 182.179L470.24 181.772M470.24 181.772V182.586M467.865 201.024L469.015 198.99M470.24 182.586L472.027 181.772M481.216 209.023L481.819 210.243M449.159 180.145L451.023 179.416C451.165 179.36 451.316 179.332 451.468 179.332V179.332C451.705 179.332 451.937 179.401 452.136 179.53L452.871 180.01M458.66 180.145L456.538 179.419C456.371 179.361 456.195 179.332 456.018 179.332V179.332C455.617 179.332 455.23 179.482 454.934 179.752L454.652 180.01M436.392 174.451L438.638 173.312C438.918 173.17 439.228 173.095 439.542 173.095H440.252V173.095C440.445 173.095 440.634 173.154 440.794 173.263L441.736 173.909M449.456 174.722L449.279 174.561C449.199 174.488 449.114 174.422 449.023 174.362L447.578 173.42C447.254 173.208 446.874 173.095 446.487 173.095V173.095H445.893H445.692C445.245 173.095 444.811 173.245 444.459 173.521L443.963 173.909M441.736 173.909L441.835 173.977C442.483 174.421 443.345 174.393 443.963 173.909V173.909M441.736 173.909H443.963M452.871 180.01L453.068 180.138C453.563 180.462 454.215 180.409 454.652 180.01V180.01M452.871 180.01H454.652M311.497 169.57H315.252M322.818 169.57H319.705M315.252 169.57V153.03M315.252 169.57H319.705M315.252 153.03H313.47M315.252 153.03H319.705M315.252 153.03V143.54M319.705 153.03H321.19M319.705 153.03V169.57M319.705 153.03V143.54M315.252 143.54H319.705M315.252 143.54H313.392C312.287 143.54 311.392 142.645 311.392 141.54V138.659M319.705 143.54H330.394M311.392 138.659H315.252M311.392 138.659H307.235H306.938M329.8 138.659L330.394 143.54M329.8 138.659L329.504 133.508M329.8 138.659H319.705M330.394 143.54L330.712 143.83C331.081 144.167 331.562 144.354 332.061 144.354H337.223M337.223 144.354L338.114 143.811M337.223 144.354L338.114 141.642M338.114 143.811V143.811C338.305 143.637 338.554 143.54 338.813 143.54H348.803M338.114 143.811V141.642M357.116 138.659V141.54C357.116 142.645 356.221 143.54 355.116 143.54H352.663M357.116 138.659H360.382M357.116 138.659H352.366M338.114 138.659V141.642M338.114 138.659H348.803M338.114 138.659L338.708 133.508M348.803 143.54V169.614M348.803 143.54H352.663M348.803 169.614L345.24 169.57H344.943M348.803 169.614L353.257 169.57M359.492 169.614L353.257 169.57M359.492 169.614L358.898 175.265M359.492 169.614L361.449 163.7C361.529 163.458 361.654 163.234 361.818 163.04L363.669 160.843C364.195 160.218 365.047 159.976 365.823 160.231L368.251 161.029M353.257 169.57L352.663 143.54M347.021 153.03H354.444M352.366 138.659V132.423M352.366 138.659H348.803M352.366 132.423L348.803 132.965M352.366 132.423L362.445 129.516C363.181 129.304 363.731 128.69 363.862 127.935L364.539 124.017M348.803 138.659V132.965M348.803 132.965L338.708 133.508M338.708 133.508H329.504M329.504 133.508L319.705 132.965M364.539 124.017L357.413 125.373L350.584 127L341.974 128.085H329.207L323.862 127.813L317.33 127L310.204 125.644L303.375 123.746M364.539 124.017L367.211 121.306M315.252 138.659V132.423M315.252 138.659H319.705M315.252 132.423L319.705 132.965M315.252 132.423L305.416 129.51C304.708 129.3 304.173 128.718 304.025 127.994L303.416 125.03C303.389 124.897 303.375 124.763 303.375 124.628V123.746M319.705 138.659V132.965M303.375 123.746L301 121.577M360.382 159.267V145.709M428.375 198.312H422.14M422.14 198.312H394.519C393.384 198.312 392.608 197.167 393.028 196.113V196.113C393.223 195.623 393.647 195.26 394.162 195.142L395.443 194.849C395.624 194.808 395.797 194.742 395.959 194.654L398.22 193.415C398.524 193.248 398.78 193.005 398.962 192.71L401.356 188.822L402.841 186.924M422.14 198.312L420.294 196.626C420.14 196.486 419.965 196.37 419.776 196.284L416.785 194.918C416.595 194.831 416.421 194.716 416.267 194.575L414.912 193.338C414.783 193.22 414.67 193.086 414.575 192.938L413.678 191.534M410.561 183.128V185.114C410.561 185.413 410.628 185.708 410.757 185.978L411.6 187.738M410.561 183.128L408.779 181.23L408.03 180.431C407.503 179.871 406.592 179.95 406.17 180.592V180.592C406.128 180.656 406.092 180.723 406.063 180.793L405.105 183.128M410.561 183.128H422.734M402.841 186.924L404.155 185.243C404.268 185.099 404.361 184.94 404.43 184.771L405.105 183.128M402.841 186.924L403.756 188.596C404.107 189.237 404.78 189.636 405.511 189.636H406.091C406.667 189.636 407.215 189.387 407.595 188.953L408.185 188.28L408.206 188.261C408.575 187.924 409.056 187.738 409.555 187.738H411.6M411.6 187.738L412.639 189.907L413.678 191.534M413.678 191.534H434.017M377.603 183.128H405.105M430.751 183.128H422.734M347.912 183.128H357.562M367.211 183.128H357.562M357.562 183.128V182.441C357.562 182.007 357.421 181.585 357.16 181.238L355.074 178.468C354.082 177.15 355.022 175.265 356.672 175.265H358.898M422.734 183.128L426.398 178.507C427.437 177.196 426.504 175.265 424.831 175.265H422.734M358.898 175.265H366.024M388.886 175.265L386.974 173.367M388.886 175.265H387.698M388.886 175.265H399.872M366.024 164.419V175.265M366.024 175.265H370.477M370.477 165.774V175.265M370.477 175.265H374.04M374.04 167.13V175.265M374.04 175.265H387.698M368.251 161.029L371.801 162.197C371.908 162.232 372.012 162.276 372.112 162.329L377.475 165.164C377.561 165.209 377.642 165.261 377.72 165.318L381.935 168.397C382.016 168.456 382.093 168.521 382.164 168.592L386.974 173.367M368.251 161.029L371.687 154.869C372.04 154.236 372.708 153.844 373.433 153.844H374.633C375.021 153.844 375.401 153.957 375.726 154.169L377.603 155.393M390.964 166.588L387.698 163.334L381.463 157.911L377.603 155.393M390.964 166.588L388.292 171.127M390.964 166.588V163.819C390.964 163.5 391.041 163.186 391.187 162.903L392.152 161.029L394.527 156.826M390.964 166.588L394.527 164.419L398.684 162.249L402.841 160.351L404.984 159.699C405.33 159.594 405.699 159.584 406.05 159.672L408.572 160.3C408.71 160.334 408.843 160.383 408.971 160.446L412.639 162.249L416.499 164.419L419.696 166.365C419.937 166.512 420.144 166.708 420.304 166.941L420.434 167.13M386.974 173.367L388.292 171.127M388.292 171.127L387.698 175.265M377.603 155.393L378.699 152.214C378.76 152.036 378.846 151.868 378.954 151.714L380.483 149.542C381.048 148.74 382.112 148.466 382.994 148.895L385.739 150.232C385.857 150.29 385.97 150.359 386.074 150.439L389.48 153.03L394.527 156.826M394.527 156.826L395.27 156.284M422.734 175.265V172.255C422.734 172.093 422.714 171.931 422.675 171.774L422.227 169.966C422.17 169.733 422.071 169.513 421.935 169.315L420.434 167.13M422.734 175.265H410.561M420.434 167.13L420.099 162.741C420.075 162.418 419.972 162.106 419.8 161.832L418.97 160.505C418.906 160.403 418.833 160.307 418.752 160.218L417.093 158.399M394.527 156.284L394.379 154.928M417.093 155.742L416.562 152.35C416.52 152.083 416.425 151.828 416.282 151.599L414.247 148.347C414.165 148.216 414.068 148.095 413.958 147.986L410.709 144.771C410.61 144.674 410.502 144.587 410.386 144.512L406.678 142.122C405.977 141.67 405.07 141.701 404.401 142.199L397.816 147.099C397.605 147.256 397.427 147.452 397.292 147.678L395.715 150.319L394.459 153.072C394.309 153.4 394.251 153.762 394.29 154.12L394.379 154.928M417.093 155.742V158.399M417.093 155.742L415.385 156.528M417.093 158.399L415.385 156.528M394.379 154.928L395.27 156.284M395.27 156.284L397.496 154.657L400.283 152.621C400.404 152.533 400.535 152.458 400.673 152.399L404.632 150.698C405.189 150.458 405.825 150.484 406.36 150.769L413.373 154.495C413.575 154.602 413.757 154.744 413.911 154.913L415.385 156.528M399.872 175.265L396.309 167.672M399.872 175.265H402.841M402.841 175.265L400.466 165.774M402.841 175.265H405.513M405.513 175.265V164.419M405.513 175.265H407.591M407.591 175.265L410.561 165.774M407.591 175.265H410.561M410.561 175.265L414.124 167.672M477.366 165.232H466.974M466.974 165.232H436.986M466.974 165.232L463.449 160.894M446.487 140.015L428.649 161.971C427.588 163.278 428.518 165.232 430.202 165.232H436.986M446.487 140.015L436.986 165.232M446.487 140.015L448.47 142.456M463.449 160.894H482.024C483.701 160.894 484.633 158.953 483.585 157.644L460.145 128.356M463.449 160.894L452.655 147.607M460.145 128.356L448.47 142.456M460.145 128.356L452.655 147.607M448.47 142.456L452.655 147.607M367.805 127V151.946M374.634 147.336V108.291M378.197 108.291H376.713M335.442 108.291H337.075M338.708 108.291V124.56M338.708 108.291H345.24M338.708 108.291H337.075M345.24 108.291V123.204M345.24 108.291H352.663M352.663 108.291V121.848M352.663 108.291H360.382M360.382 108.291V119.679M360.382 108.291H367.805M367.805 108.291V117.239M367.805 108.291H376.713M337.075 108.291V101.241M337.075 70.3297V77.3796M337.075 77.3796V101.241M337.075 77.3796H343.458M376.713 77.3796V101.241M376.713 77.3796H370.181M376.713 77.3796V70.3297M376.713 108.291V101.241M337.075 101.241H343.458M376.713 101.241H370.181M343.458 101.241V77.3796M343.458 101.241C343.458 101.241 360.679 101.241 361.57 101.241M343.458 77.3796H370.181M370.181 77.3796V92.564M370.181 101.241H361.57M370.181 101.241V92.564M361.57 101.241C364.606 99.17 368.399 96.6312 370.181 92.564M352.069 101.241C349.033 99.17 345.24 96.6312 343.458 92.564M361.57 77.3796C364.606 79.4504 368.399 81.9892 370.181 86.0564M352.069 77.3796C349.033 79.4504 345.24 81.9892 343.458 86.0564M356.819 80.6334V89.5813H362.461M376.713 70.3297H378.197M376.713 70.3297H374.634M335.442 70.3297H339.005M374.634 60.2972V63.8221M374.634 70.3297H339.005M374.634 70.3297V63.8221M339.005 60.2972V63.8221M339.005 70.3297V63.8221M339.005 63.8221H341.677M374.634 63.8221H371.071M341.677 63.8221C345.196 61.7805 346.669 59.9063 348.506 55.4165M341.677 63.8221H371.071M348.506 55.4165H365.133M348.506 55.4165V48.3666M365.133 55.4165C367.207 59.8276 368.502 61.6943 371.071 63.8221M365.133 55.4165V45.9262M348.506 45.9262V48.3666M348.506 48.3666H350.287M365.133 48.3666H362.758M350.287 48.3666C353.196 46.0634 354.153 44.1008 355.259 40.2276C355.31 40.0515 355.335 39.8681 355.335 39.6851V37.1071C355.335 36.2872 356 35.6226 356.819 35.6226V35.6226M350.287 48.3666H362.758M362.758 48.3666C360.619 46.1422 359.77 44.0537 358.421 40.2876C358.344 40.0718 358.304 39.8438 358.304 39.6145V37.1071C358.304 36.2872 357.639 35.6226 356.819 35.6226V35.6226M356.819 23.1497V35.6226M354.147 26.6746H359.195M309.314 121.577V109.782M309.314 97.987H330.394M309.314 97.987V109.782M309.314 97.987C309.314 97.987 306.048 95.2755 307.235 95.2755C308.423 95.2755 311.392 95.2755 311.392 95.2755M330.394 97.987V109.646M330.394 97.987C330.394 97.987 333.957 95.2755 332.473 95.2755C330.988 95.2755 328.316 95.2755 328.316 95.2755M330.394 124.56V109.646M316.736 106.935C316.736 106.935 307.829 106.935 306.938 106.935C306.048 106.935 309.314 109.782 309.314 109.782M316.736 106.935V103.584C316.736 103.121 316.897 102.672 317.191 102.314L317.918 101.429C318.298 100.967 318.865 100.698 319.463 100.698H319.887C320.346 100.698 320.791 100.856 321.147 101.146L322.529 102.267C322.997 102.647 323.268 103.218 323.268 103.82V106.935M316.736 106.935V109.646M323.268 106.935C323.268 106.935 331.285 106.935 332.473 106.935C333.66 106.935 330.394 109.646 330.394 109.646M323.268 106.935V109.646M330.394 109.646H323.268M323.268 109.646V112.9M316.736 109.646L309.314 109.782M316.736 109.646V112.9M328.316 95.2755C328.316 95.2755 328.316 89.5813 328.316 87.4121C328.316 85.2429 323.329 79.2088 319.705 77.9219M328.316 95.2755H311.392M319.705 77.9219C314.064 81.4469 311.986 83.616 311.392 87.4121C310.798 91.2082 311.392 95.2755 311.392 95.2755M319.705 77.9219C316.725 82.1173 315.749 84.5516 315.252 89.039M319.705 77.9219C322.63 81.7691 323.599 84.2729 324.753 89.039M319.705 77.9219V71.9566M310.204 89.039H315.252M329.504 89.039H324.753M315.252 89.039C315.252 89.039 323.862 89.039 324.753 89.039M318.518 74.397H320.596M316.736 112.9V117.137C316.736 118.241 317.632 119.137 318.736 119.137H321.268C322.373 119.137 323.268 118.241 323.268 117.137V112.9M316.736 112.9H323.268M325.347 70.3297L326.627 69.3941C326.76 69.2973 326.92 69.2451 327.084 69.2451V69.2451C327.301 69.2451 327.509 69.3366 327.655 69.4973L328.093 69.9773C328.532 70.4576 329.288 70.4576 329.726 69.9773V69.9773C330.106 69.5607 330.739 69.4971 331.195 69.8298L331.879 70.3297L332.473 70.872M320.002 64.0933L322.327 62.8547C323.07 62.4593 323.98 62.574 324.601 63.1411L324.65 63.1856C325.381 63.8532 326.5 63.8532 327.231 63.1856V63.1856C327.871 62.6014 328.823 62.5197 329.553 62.9862L331.285 64.0933M382.651 143.811V141.748C382.651 141.499 382.697 141.252 382.788 141.02L384.135 137.575M384.135 137.575L383.966 115.883M384.135 137.575C387.205 134.048 389.21 132.162 393.933 129.169C400.441 124.36 409.373 118.594 410.561 116.696C411.095 115.842 411.99 114.495 412.813 113.171M383.542 61.6529L383.224 61.4352C382.679 61.0624 382.354 60.445 382.354 59.7852V55.9588M383.542 61.6529L383.597 68.7478M383.542 61.6529H384.511C385.615 61.6529 386.511 60.7575 386.511 59.6529V55.9588M382.354 55.9588H386.511M382.354 55.9588V55.9588C381.862 55.9588 381.463 55.56 381.463 55.068V52.2646C381.463 51.1601 382.359 50.2646 383.463 50.2646H383.597M390.074 55.9588V68.7478M390.074 55.9588H386.511M390.074 55.9588V55.9588C390.894 55.9588 391.558 55.2941 391.558 54.4742V52.2646C391.558 51.1601 390.663 50.2646 389.558 50.2646H389.183M390.074 96.6312L383.875 104.223M390.074 96.6312V87.6833M390.074 96.6312L392.3 98.936M383.875 104.223L383.597 68.7478M383.875 104.223L383.966 115.883M383.597 68.7478H390.074M390.074 68.7478V81.9892M383.597 50.2646V49.282C383.597 48.1774 384.492 47.282 385.597 47.282H387.183C388.287 47.282 389.183 48.1774 389.183 49.282V50.2646M383.597 50.2646H389.183M394.527 101.241L392.3 98.936M394.527 101.241L395.418 101.88M394.527 101.241V90.3948M394.527 87.6833H390.074M394.527 87.6833V90.3948M394.527 87.6833L396.012 85.3592M390.074 87.6833V81.9892M383.966 115.883L392.472 105.972C392.836 105.549 393.006 104.993 392.941 104.438L392.3 98.936M412.639 98.936L409.373 102.305M412.639 98.936L414.717 104.756M412.639 98.936V95.5466M398.09 103.797L402.318 106.831C402.658 107.075 403.066 107.206 403.484 107.206H403.776C404.317 107.206 404.835 106.987 405.212 106.598L406.998 104.756M398.09 103.797V109.154C398.09 109.646 398.27 110.122 398.605 110.482C399.981 111.961 401.069 112.86 402.694 113.892C403.325 114.292 404.132 114.283 404.761 113.88C406.393 112.835 407.526 111.983 408.888 110.472C409.206 110.119 409.373 109.657 409.373 109.182V102.305M398.09 103.797L395.418 101.88M409.373 102.305L406.998 104.756M406.998 104.756H414.717M422.14 120.764V109.402C422.14 109.03 422.038 108.663 421.835 108.352C420.77 106.726 419.824 105.843 417.763 104.919C417.518 104.809 417.251 104.756 416.983 104.756H414.717M414.717 104.756C414.717 104.756 414.717 108.291 414.717 109.375C414.717 109.972 413.819 111.553 412.813 113.171M394.527 143.269V141.671C394.527 141.472 394.557 141.274 394.615 141.084L396.475 135.02C396.561 134.738 396.708 134.479 396.906 134.261L408.018 122.032C408.129 121.91 408.225 121.774 408.302 121.629L412.813 113.171M395.418 101.88V95.64C395.418 94.913 395.812 94.2433 396.448 93.8908L403.732 89.8525M403.732 89.8525L412.639 94.462M403.732 89.8525V87.141M412.639 94.462L412.726 90.5304M412.639 94.462V95.5466M394.527 90.3948L398.928 87.883C399.159 87.7512 399.414 87.6667 399.678 87.6346L403.732 87.141M403.732 87.141L408.252 87.6267C408.598 87.6638 408.927 87.7901 409.209 87.9933L412.726 90.5304M412.726 90.5304L412.789 87.6833M412.639 95.5466H406.622C405.518 95.5466 404.622 96.4421 404.622 97.5466V98.1036C404.622 99.0874 403.825 99.885 402.841 99.885V99.885M390.074 81.9892L396.012 85.3592M396.012 85.3592L396.234 85.0111C396.475 84.6343 396.835 84.349 397.257 84.2008L399.872 83.2823M395.121 76.5662L399.872 83.2823M399.872 83.2823L400.144 83.1868C400.357 83.112 400.581 83.0737 400.807 83.0737H403.732M403.732 73.8547V83.0737M403.732 83.0737H406.63C406.873 83.0737 407.114 83.1181 407.341 83.2045L407.546 83.2823M412.639 76.5662L407.546 83.2823M407.546 83.2823L410.179 84.2842C410.431 84.3801 410.661 84.5259 410.855 84.713L411.687 85.5141M418.28 81.9892L411.687 85.5141M411.687 85.5141L412.181 85.9905C412.584 86.3782 412.806 86.9165 412.793 87.4751L412.789 87.6833M412.789 87.6833H418.874M422.14 138.874V138.874C423.466 139.626 425.109 138.668 425.109 137.145V123.796C425.109 123.092 424.74 122.441 424.136 122.079L419.526 119.321C418.193 118.523 416.499 119.484 416.499 121.037V134.511C416.499 135.232 416.886 135.896 417.513 136.251L422.14 138.874ZM422.14 138.874V153.573M430.157 145.438V105.797C430.157 104.693 431.052 103.797 432.157 103.797H435.204M435.204 103.797L435.047 123.475M435.204 103.797C439.014 114.399 445.186 118.421 458.66 118.949C475.195 118.832 479.655 110.945 482.71 103.797M434.907 140.829L435.047 123.475M435.047 123.475H439.553M482.71 123.475H477.663M482.71 103.797V145.438M482.71 103.797H485.164C486.268 103.797 487.164 104.693 487.164 105.797V123.475M487.164 140.829V123.475M472.021 116.696V123.746M477.663 111.768V123.475M477.663 123.475H466.677M466.677 118.063V123.475M466.677 123.475H461.481M461.481 118.866V123.475M461.481 123.475H455.691M455.691 118.949V123.475M455.691 123.475H450.05M450.05 118.371V123.475M450.05 123.475H444.599M444.599 115.883V123.475M444.599 123.475H439.553M439.553 111.768V123.475M487.164 123.475H494.29M506.76 30.1996V44.0282M500.228 47.5531H513.292M505.572 53.7896H502.39V44.0282H511.511V53.7896H508.542M505.572 53.7896L504.385 85.2429M505.572 53.7896H508.542M508.542 53.7896L509.729 98.8004M456.879 106.664H466.677M502.39 106.664C499.185 99.3411 495.833 95.9681 487.906 95.554C487.809 95.5489 487.707 95.5516 487.61 95.5617C480.264 96.3213 476.725 98.7291 474.545 105.216C474.26 106.065 473.481 106.664 472.586 106.664H466.677M491.914 106.664H509.729C509.729 106.664 504.686 99.2985 501.416 92.2928M466.677 106.664C470.646 101.693 472.436 98.4462 475.287 92.2928M475.287 92.2928H501.416M475.287 92.2928L474.868 91.5813C474.135 90.3375 475.031 88.7679 476.475 88.7679V88.7679M501.416 92.2928L501.731 91.5442C502.286 90.2259 501.318 88.7679 499.888 88.7679H499.634M480.929 71.6855L476.475 88.7679M476.475 88.7679H483.304M485.679 71.6855H480.389C479.656 71.6855 479.013 71.1952 478.819 70.4881V70.4881C478.536 69.4528 479.315 68.4317 480.389 68.4317H481.819M485.679 71.6855L483.304 88.7679M485.679 71.6855H490.133M483.304 88.7679H492.508M490.133 71.6855L492.508 88.7679M490.133 71.6855H494.884M492.508 88.7679H499.634M494.884 71.6855H495.424C496.157 71.6855 496.799 71.1952 496.993 70.4881V70.4881C497.276 69.4528 496.497 68.4317 495.424 68.4317H493.993M494.884 71.6855L499.634 88.7679M487.758 4.98265V11.2191M490.133 14.744V11.2191H485.679V14.744M490.133 14.744H485.679M490.133 14.744H491.024V18.5401H490.133M485.679 14.744H484.492V18.5401H485.679M490.133 18.5401C490.742 44.5687 491.639 55.1133 493.993 68.4317M490.133 18.5401H485.679M493.993 68.4317H481.819M485.679 18.5401C485.679 34.2668 484.492 57.8568 481.819 68.4317M417.39 97.4447H423.031M466.677 97.4447H448.268M423.031 97.4447V69.7874V65.449M423.031 97.4447H428.078M472.021 69.7874V81.9892M472.021 69.7874V59.4837M472.021 69.7874H467.271M448.268 69.7874V97.4447M448.268 69.7874H417.686M448.268 69.7874V65.449M448.268 69.7874H467.271M448.268 97.4447H443.518M428.078 97.4447V81.9892M428.078 97.4447H433.72M443.518 97.4447V81.9892M443.518 97.4447H437.876M428.078 81.9892V80.6582C428.078 80.1219 428.294 79.6082 428.676 79.2322L434.396 73.607C435.174 72.8416 436.422 72.8416 437.2 73.607L442.92 79.2322C443.302 79.6082 443.518 80.1219 443.518 80.6582V81.9892M428.078 81.9892L434.773 77.9919C435.404 77.6147 436.192 77.6147 436.823 77.9919L443.518 81.9892M433.72 97.4447V88.4868C433.72 87.9712 433.919 87.4754 434.276 87.1031L434.354 87.0213C435.141 86.1995 436.455 86.1995 437.242 87.0213L437.321 87.1031C437.677 87.4754 437.876 87.9712 437.876 88.4868V97.4447M433.72 97.4447H437.876M403.732 62.4664V67.7874C403.732 68.892 404.627 69.7874 405.732 69.7874H410.561M410.561 69.7874L408.185 67.0759M410.561 69.7874H417.686M408.185 67.0759L408.039 66.703C407.741 65.945 407.932 65.082 408.523 64.5211L413.827 59.4837M408.185 67.0759L407.795 66.0822C407.642 65.6944 407.744 65.2611 408.056 64.9641L413.827 59.4837M413.827 59.4837L419.182 64.8638C419.555 65.2386 419.765 65.7459 419.765 66.2748V67.0759M413.827 59.4837V54.8742V55.9588M413.827 59.4837L419.456 65.1388C419.655 65.3384 419.765 65.5985 419.765 65.8683V67.0759M413.827 59.4837V55.9588M419.765 67.0759L417.686 69.7874M423.031 65.449H448.268M423.031 65.449L421.464 62.3495C421.323 62.0698 421.249 61.7608 421.249 61.4474V58.6397C421.249 58.3039 421.334 57.9736 421.495 57.6792L423.446 54.1156C423.564 53.9001 423.721 53.7082 423.908 53.5495L424.219 53.287M448.268 65.449L449.835 62.3495C449.976 62.0698 450.05 61.7608 450.05 61.4474V58.5226C450.05 58.262 449.999 58.004 449.9 57.7629L448.459 54.2528C448.334 53.9487 448.136 53.68 447.882 53.4707L435.798 43.4859M467.271 62.4664V69.7874M413.827 55.9588H412.639H415.014H413.827ZM457.863 59.4837L452.093 64.9641C452.054 65.0012 452.018 65.0404 451.986 65.0815C451.759 65.3687 451.698 65.7429 451.831 66.0822L452.095 66.7517C452.179 66.9662 452.3 67.1646 452.451 67.3379L454.241 69.3804C454.466 69.6376 454.807 69.7874 455.168 69.7874H461.105C461.492 69.7874 461.855 69.6147 462.078 69.3248L463.389 67.6143C463.656 67.2651 463.802 66.8375 463.802 66.3976V65.8683C463.802 65.8515 463.801 65.8346 463.8 65.8179C463.787 65.5662 463.679 65.3259 463.493 65.1388L457.863 59.4837ZM457.863 59.4837V55.9588M457.863 55.9588V54.8742M457.863 55.9588H456.676M457.863 55.9588H459.051M435.798 43.4859V35.8937M435.798 43.4859L424.219 53.287M433.72 37.5206H437.58M424.219 31.8265V53.287M423.031 40.2321H425.406M423.031 36.7072H425.406M423.031 33.1822H425.406M475.881 37.7918V63.2798M475.881 37.7918L472.021 39.1475M475.881 37.7918C477.18 37.3773 478.17 36.9847 478.915 36.5596M472.021 39.1475C469.38 39.6488 467.081 39.9962 464.923 40.1947M472.021 39.1475V45.1128M472.021 49.9935V45.1128M449.159 39.1475V45.6551M449.159 39.1475C451.571 39.5881 453.697 39.9143 455.691 40.1223M449.159 39.1475L445.596 37.7918M449.159 49.9935V45.6551M445.596 37.7918V45.6551M445.596 37.7918C444.358 37.3676 443.38 36.9766 442.627 36.5596M449.159 45.6551C451.617 42.9002 453.047 41.6881 455.691 40.1223M455.691 40.1223C458.894 40.4564 461.758 40.4858 464.923 40.1947M464.923 40.1947C467.981 41.541 469.535 42.6185 472.021 45.1128M440.549 32.9111C440.431 34.6428 441.007 35.6617 442.627 36.5596M480.929 32.9111C480.965 34.6154 480.49 35.6602 478.915 36.5596M442.627 36.5596L450.05 33.9957M450.05 33.9957H453.729M450.05 33.9957L450.347 28.8438M471.428 33.9957L478.915 36.5596M471.428 33.9957V28.5727M471.428 33.9957H467.271M471.428 28.5727C463.84 29.3554 459.217 29.4098 450.347 28.8438M471.428 28.5727C472.799 28.1851 473.978 27.8255 474.99 27.4839M467.271 29.115V33.9957M467.271 33.9957H453.729M453.729 29.115V33.9957M450.347 28.8438C448.866 28.2966 447.587 27.804 446.487 27.3516M480.929 21.7939C480.92 23.124 480.471 24.4932 478.652 25.7567M440.549 21.7939C440.356 23.3951 441.769 25.4107 446.487 27.3516M446.487 22.6074V27.3516M446.487 27.3516C447.736 26.8011 448.862 26.2792 449.904 25.7567M474.99 22.6074V27.4839M474.99 27.4839C473.658 26.8806 472.484 26.3107 471.428 25.7567M474.99 27.4839C476.594 26.9431 477.78 26.362 478.652 25.7567M460.739 11.4902V17.7267M460.739 17.7267C464.337 21.1227 466.706 23.2806 471.428 25.7567M460.739 17.7267C456.83 21.6174 454.021 23.6923 449.904 25.7567M471.428 25.7567H478.652M442.627 25.7567H449.904M465.489 51.8915V55.9588M463.493 53.7896H467.271M446.487 104.756V106.935M446.487 106.935V109.375M446.487 106.935H443.815M446.487 106.935H449.159M371.665 26.9458V30.1996M371.665 30.1996V33.4534M371.665 30.1996H368.399M371.665 30.1996H375.228M366.618 35.8837V38.0629M366.618 38.0629V40.5033M366.618 38.0629H363.945M366.618 38.0629H367.954H369.29M431.344 26.1323V28.0304M431.344 28.0304V30.1996M431.344 28.0304H429.266M431.344 28.0304H433.423M398.09 41.3167L396.903 66.0822M398.09 41.3167L412.577 47.1378C412.814 47.233 413.067 47.282 413.323 47.282H414.42M398.09 41.3167V41.3167C397.27 41.3167 396.606 40.652 396.606 39.8321V28.4028C396.606 28.1566 396.56 27.9108 396.47 27.6816C394.486 22.6283 392.67 20.15 384.726 20.1566C384.162 20.157 383.614 19.9364 383.236 19.5181C382.512 18.7178 381.97 18.023 381.452 17.1844M415.311 31.8265V46.3913C415.311 46.8832 414.912 47.282 414.42 47.282V47.282M415.311 31.8265C410.32 33.346 400.258 24.0519 393.043 16.791M415.311 31.8265C415.405 30.1165 415.159 28.6011 415.311 27.2169M402.544 15.2863V17.068C402.544 17.6576 402.804 18.2171 403.255 18.5971L405.062 20.1205C405.83 20.7677 406.958 20.7453 407.7 20.0682L409.315 18.5926C409.73 18.2137 409.967 17.6777 409.967 17.1158V10.9479M402.544 15.2863V10.9479M402.544 15.2863H399.575M409.967 15.2863H412.936M391.558 15.2863H399.575M391.558 15.2863H389.48M391.558 15.2863C392.037 15.7747 392.533 16.2778 393.043 16.791M419.468 15.2863H412.936M419.468 15.2863C417.403 18.9421 416.405 21.8608 415.851 25.7567M419.468 15.2863H432.829M409.967 10.9479L407.49 12.6443C406.831 13.0958 405.966 13.1117 405.291 12.6847L402.544 10.9479M409.967 10.9479V6.33839M402.544 10.9479L402.504 8.65665M399.575 15.2863L399.495 9.56372C399.491 9.28111 399.563 8.92827 399.641 8.65665V8.65665M412.936 15.2863C412.936 12.8509 412.936 11.4854 412.936 9.04989C412.763 6.56019 412.202 4.9636 410.857 3.85002M402.417 3.6269C400.921 4.69481 400.338 6.23103 399.641 8.65665M402.417 3.6269L402.504 8.65665M402.417 3.6269L402.027 4.7115M402.417 3.6269C403.149 3.10363 404.041 2.6928 405.152 2.34487M400.762 8.23644L402.027 4.7115M409.967 3.24383C410.296 3.42917 410.592 3.63018 410.857 3.85002M409.967 3.24383C409.247 2.83884 408.367 2.50866 407.295 2.22037M409.967 3.24383V4.44035M410.857 3.85002L411.154 9.32104M409.967 6.33839H406.701V9.32104H405.513M409.967 6.33839V4.44035M399.641 8.65665H402.504M402.027 4.7115L405.152 2.34487M405.152 2.34487C405.405 2.26555 405.67 2.1895 405.946 2.11613C406.246 2.03665 406.562 2.03453 406.863 2.10906C407.01 2.14549 407.154 2.18257 407.295 2.22037M405.152 2.34487L407.888 2.7137M407.295 2.22037L407.888 2.7137M409.967 4.44035L407.888 2.7137M380.424 15.2863H369.089C368.781 15.2863 368.673 15.695 368.941 15.8472L373.572 18.4786C374.224 18.8493 375.029 18.8237 375.656 18.4123L377.529 17.1844M380.424 15.2863L377.529 17.1844M380.424 15.2863C380.785 16.0268 381.113 16.6363 381.452 17.1844M380.424 15.2863H389.48M377.529 17.1844H381.452M389.48 15.2863L393.043 16.791M415.851 25.7567C418.609 22.5946 420.394 21.5635 424.787 20.2617C424.999 20.1988 425.223 20.1725 425.444 20.1833C426.54 20.2363 427.31 20.2701 428.219 20.2223C428.703 20.1969 429.151 19.971 429.494 19.6283C430.283 18.8394 430.989 18.2249 431.532 17.7267M415.851 25.7567C415.783 26.2281 415.366 26.7138 415.311 27.2169M432.829 15.2863H442.963C443.111 15.2863 443.249 15.3963 443.229 15.5432C443.152 16.1163 442.267 16.433 438.337 18.1988C437.854 18.4159 437.301 18.4354 436.805 18.249L435.056 17.5911M432.829 15.2863C432.573 15.395 433.679 14.7683 432.532 16.6421M432.532 16.6421C432.361 16.9401 432.009 17.2884 431.532 17.7267M432.532 16.6421L435.056 17.5911M431.532 17.7267L435.056 17.5911M414.42 47.282V48.0954M414.42 52.4338V48.0954M415.311 27.2169L415.546 47.0933C415.548 47.2177 415.523 47.3409 415.473 47.4549V47.4549C415.37 47.6893 415.17 47.8672 414.925 47.9417L414.42 48.0954M454.207 81.7296H459.551C459.879 81.7296 460.145 81.4868 460.145 81.1873V77.3166C460.145 77.1896 460.096 77.0667 460.007 76.9692L457.161 73.8547C456.914 73.5846 456.455 73.5973 456.227 73.8805L453.729 76.9766C453.653 77.0698 453.613 77.1825 453.613 77.2983V81.1873C453.613 81.4868 453.879 81.7296 454.207 81.7296ZM464.923 74.4002L463.551 77.0088C463.513 77.082 463.493 77.1623 463.493 77.2436V81.1873C463.493 81.4868 463.759 81.7296 464.086 81.7296H466.677C467.005 81.7296 467.271 81.4868 467.271 81.1873V77.2314C467.271 77.1579 467.254 77.0853 467.223 77.0178L466.004 74.4214C465.803 73.9933 465.144 73.9804 464.923 74.4002ZM385.917 32.6399C388.151 33.448 389.404 33.9903 390.471 36.0373C390.606 36.2967 390.667 36.5876 390.667 36.88V41.2635C390.667 41.6521 390.559 42.0359 390.33 42.3498C389.601 43.3489 388.824 43.9937 387.26 44.7618C386.785 44.9951 386.231 45.0113 385.741 44.812C384.335 44.2406 383.441 43.7228 382.606 42.8026C382.234 42.3925 382.113 41.8208 382.213 41.2759L382.221 41.2311C382.307 40.7614 382.56 40.3402 382.926 40.0331C383.689 39.3915 384.059 39.0009 384.135 38.6052L384.784 39.6718C385.231 40.4063 386.215 40.5924 386.9 40.0717V40.0717C387.22 39.8281 387.424 39.4625 387.464 39.0622L387.662 37.0758C387.686 36.8321 387.665 36.5851 387.599 36.3492C386.68 33.0697 386.508 33.6268 385.917 32.6399ZM464.553 85.6668L463.608 87.4647C463.532 87.6083 463.493 87.768 463.493 87.9302V91.2928C463.493 91.8451 463.94 92.2928 464.493 92.2928H466.271C466.823 92.2928 467.271 91.8451 467.271 91.2928V87.9063C467.271 87.7594 467.238 87.6144 467.176 87.4814L466.344 85.7075C465.993 84.9597 464.938 84.9358 464.553 85.6668ZM459.145 92.2928H454.613C454.061 92.2928 453.613 91.8451 453.613 91.2928V88.0364C453.613 87.8079 453.691 87.5863 453.835 87.4085L455.945 84.7933C456.329 84.3167 457.048 84.2945 457.461 84.7466L459.883 87.3968C460.051 87.5811 460.145 87.8217 460.145 88.0714V91.2928C460.145 91.8451 459.697 92.2928 459.145 92.2928ZM332.851 173.227L332.667 173.338C332.349 173.532 332.106 173.828 331.978 174.178V174.178C331.913 174.359 331.879 174.549 331.879 174.742V174.89C331.879 175.136 331.941 175.378 332.059 175.593V175.593C332.136 175.735 332.237 175.862 332.356 175.971L332.626 176.219C332.722 176.305 332.825 176.383 332.935 176.45L333.28 176.66C333.529 176.811 333.814 176.892 334.106 176.892V176.892C334.397 176.892 334.683 176.811 334.931 176.66L335.276 176.45C335.386 176.383 335.49 176.305 335.585 176.219L335.895 175.935C335.988 175.85 336.066 175.751 336.127 175.64V175.64C336.26 175.398 336.3 175.116 336.241 174.847L336.11 174.249C336.061 174.025 335.966 173.813 335.831 173.628V173.628C335.581 173.286 335.21 173.053 334.793 172.977L334.435 172.911C334.121 172.854 333.798 172.873 333.493 172.966L333.308 173.022C333.148 173.071 332.994 173.14 332.851 173.227ZM335.004 193.957L335.31 194.19C335.58 194.395 335.739 194.716 335.739 195.055V195.055C335.739 195.656 335.252 196.143 334.651 196.143H333.602C332.978 196.143 332.473 195.638 332.473 195.014V195.014C332.473 194.697 332.606 194.394 332.84 194.181L332.986 194.047C333.549 193.534 334.398 193.496 335.004 193.957Z" stroke="url(#paint0_linear_10_2)" stroke-width="3.5" stroke-linecap="round"/>
<path d="M2.86572 145.175L6.16572 144.35V109.15L2.86572 108.325V107.5H17.7157C23.2891 107.5 27.3774 108.398 29.9807 110.195C32.6207 111.955 33.9407 114.265 33.9407 117.125C33.9407 119.105 33.3724 120.7 32.2357 121.91C31.0991 123.12 29.6507 124.018 27.8907 124.605C26.0207 125.265 24.0041 125.613 21.8407 125.65V125.925C24.5174 126.035 26.8457 126.438 28.8257 127.135C30.8424 127.795 32.5107 128.822 33.8307 130.215C35.1874 131.608 35.8657 133.387 35.8657 135.55C35.8657 138.813 34.5274 141.38 31.8507 143.25C29.1741 145.083 24.8291 146 18.8157 146H2.86572V145.175ZM17.7157 125.1C18.9257 125.1 20.0441 124.77 21.0707 124.11C22.1341 123.413 22.9774 122.46 23.6007 121.25C24.2607 120.003 24.5907 118.628 24.5907 117.125C24.5907 115.512 24.2607 114.082 23.6007 112.835C22.9774 111.588 22.1341 110.617 21.0707 109.92C20.0441 109.223 18.9257 108.875 17.7157 108.875H15.2407V125.1H17.7157ZM18.8157 144.625C21.0891 144.625 22.9407 143.818 24.3707 142.205C25.8007 140.592 26.5157 138.373 26.5157 135.55C26.5157 132.727 25.8007 130.508 24.3707 128.895C22.9407 127.282 21.0891 126.475 18.8157 126.475H15.2407V144.625H18.8157ZM40.2485 146V145.175L43.5485 144.35V109.15L40.2485 108.325V107.5H55.9235V108.325L52.6235 109.15V144.35L55.9235 145.175V146H40.2485ZM80.3856 146.825C74.959 146.825 70.8523 145.56 68.0656 143.03C65.279 140.463 63.8856 136.87 63.8856 132.25V109.15L60.5856 108.325V107.5H76.2606V108.325L72.9606 109.15V132.25C72.9606 136.98 73.694 140.372 75.1606 142.425C76.6273 144.442 78.7356 145.45 81.4856 145.45C83.1723 145.45 84.7673 144.918 86.2706 143.855C87.8106 142.755 89.039 141.215 89.9556 139.235C90.909 137.218 91.3856 134.89 91.3856 132.25V109.975L86.9856 108.325V107.5H97.4356V108.325L93.0356 109.975V132.25C93.0356 135.22 92.4856 137.805 91.3856 140.005C90.2856 142.205 88.7823 143.892 86.8756 145.065C84.969 146.238 82.8056 146.825 80.3856 146.825ZM100.458 145.175L103.758 144.35V109.15L100.458 108.325V107.5H115.033C121.267 107.5 125.758 108.453 128.508 110.36C131.258 112.23 132.633 114.852 132.633 118.225C132.633 120.498 132.028 122.35 130.818 123.78C129.608 125.173 128.05 126.218 126.143 126.915C124.127 127.685 121.982 128.088 119.708 128.125V128.4C121.065 128.473 122.257 128.675 123.283 129.005C125.85 129.812 127.592 131.26 128.508 133.35L133.458 144.35L136.208 145.175V146H128.508C125.502 146 123.302 144.442 121.908 141.325L116.408 128.95H112.833V144.35L116.683 145.175V146H100.458V145.175ZM115.033 127.575C117.6 127.575 119.617 126.768 121.083 125.155C122.55 123.542 123.283 121.232 123.283 118.225C123.283 115.218 122.55 112.908 121.083 111.295C119.617 109.682 117.6 108.875 115.033 108.875H112.833V127.575H115.033ZM156.032 146.825C152.439 146.825 149.285 146.055 146.572 144.515C143.895 142.938 141.824 140.647 140.357 137.64C138.89 134.633 138.157 131.003 138.157 126.75C138.157 122.497 138.89 118.867 140.357 115.86C141.824 112.853 143.895 110.58 146.572 109.04C149.285 107.463 152.439 106.675 156.032 106.675C159.625 106.675 162.76 107.463 165.437 109.04C168.15 110.58 170.24 112.853 171.707 115.86C173.174 118.867 173.907 122.497 173.907 126.75C173.907 131.003 173.174 134.633 171.707 137.64C170.24 140.647 168.15 142.938 165.437 144.515C162.76 146.055 159.625 146.825 156.032 146.825ZM156.032 145.725C157.462 145.725 158.782 145.12 159.992 143.91C161.239 142.7 162.265 140.683 163.072 137.86C163.879 135.037 164.282 131.333 164.282 126.75C164.282 122.167 163.879 118.463 163.072 115.64C162.265 112.817 161.239 110.8 159.992 109.59C158.782 108.38 157.462 107.775 156.032 107.775C154.602 107.775 153.264 108.38 152.017 109.59C150.807 110.8 149.799 112.817 148.992 115.64C148.185 118.463 147.782 122.167 147.782 126.75C147.782 131.333 148.185 135.037 148.992 137.86C149.799 140.683 150.807 142.7 152.017 143.91C153.264 145.12 154.602 145.725 156.032 145.725ZM194.56 145.175L197.86 144.35V109.15L194.56 108.325V107.5H209.96C216.047 107.5 220.41 108.508 223.05 110.525C225.69 112.505 227.01 115.438 227.01 119.325C227.01 123.212 225.69 126.163 223.05 128.18C220.41 130.16 216.047 131.15 209.96 131.15H206.935V144.35L210.235 145.175V146H194.56V145.175ZM209.96 129.775C212.27 129.775 214.122 128.895 215.515 127.135C216.945 125.375 217.66 122.772 217.66 119.325C217.66 115.915 216.945 113.33 215.515 111.57C214.122 109.773 212.27 108.875 209.96 108.875H206.935V129.775H209.96ZM249.274 146.825C245.681 146.825 242.528 146.055 239.814 144.515C237.138 142.938 235.066 140.647 233.599 137.64C232.133 134.633 231.399 131.003 231.399 126.75C231.399 122.497 232.133 118.867 233.599 115.86C235.066 112.853 237.138 110.58 239.814 109.04C242.528 107.463 245.681 106.675 249.274 106.675C252.868 106.675 256.003 107.463 258.679 109.04C261.393 110.58 263.483 112.853 264.949 115.86C266.416 118.867 267.149 122.497 267.149 126.75C267.149 131.003 266.416 134.633 264.949 137.64C263.483 140.647 261.393 142.938 258.679 144.515C256.003 146.055 252.868 146.825 249.274 146.825ZM249.274 145.725C250.704 145.725 252.024 145.12 253.234 143.91C254.481 142.7 255.508 140.683 256.314 137.86C257.121 135.037 257.524 131.333 257.524 126.75C257.524 122.167 257.121 118.463 256.314 115.64C255.508 112.817 254.481 110.8 253.234 109.59C252.024 108.38 250.704 107.775 249.274 107.775C247.844 107.775 246.506 108.38 245.259 109.59C244.049 110.8 243.041 112.817 242.234 115.64C241.428 118.463 241.024 122.167 241.024 126.75C241.024 131.333 241.428 135.037 242.234 137.86C243.041 140.683 244.049 142.7 245.259 143.91C246.506 145.12 247.844 145.725 249.274 145.725ZM272.387 145.175L275.687 144.35V109.15L272.387 108.325V107.5H286.412C292.976 107.5 297.999 109.187 301.482 112.56C305.002 115.933 306.762 120.663 306.762 126.75C306.762 132.837 305.002 137.567 301.482 140.94C297.999 144.313 292.976 146 286.412 146H272.387V145.175ZM286.412 144.625C289.822 144.625 292.462 143.25 294.332 140.5C296.202 137.713 297.137 133.13 297.137 126.75C297.137 120.37 296.202 115.805 294.332 113.055C292.462 110.268 289.822 108.875 286.412 108.875H284.762V144.625H286.412ZM311.704 145.175L315.004 144.35V109.15L311.704 108.325V107.5H326.279C332.512 107.5 337.004 108.453 339.754 110.36C342.504 112.23 343.879 114.852 343.879 118.225C343.879 120.498 343.274 122.35 342.064 123.78C340.854 125.173 339.295 126.218 337.389 126.915C335.372 127.685 333.227 128.088 330.954 128.125V128.4C332.31 128.473 333.502 128.675 334.529 129.005C337.095 129.812 338.837 131.26 339.754 133.35L344.704 144.35L347.454 145.175V146H339.754C336.747 146 334.547 144.442 333.154 141.325L327.654 128.95H324.079V144.35L327.929 145.175V146H311.704V145.175ZM326.279 127.575C328.845 127.575 330.862 126.768 332.329 125.155C333.795 123.542 334.529 121.232 334.529 118.225C334.529 115.218 333.795 112.908 332.329 111.295C330.862 109.682 328.845 108.875 326.279 108.875H324.079V127.575H326.279ZM367.277 146.825C363.684 146.825 360.531 146.055 357.817 144.515C355.141 142.938 353.069 140.647 351.602 137.64C350.136 134.633 349.402 131.003 349.402 126.75C349.402 122.497 350.136 118.867 351.602 115.86C353.069 112.853 355.141 110.58 357.817 109.04C360.531 107.463 363.684 106.675 367.277 106.675C370.871 106.675 374.006 107.463 376.682 109.04C379.396 110.58 381.486 112.853 382.952 115.86C384.419 118.867 385.152 122.497 385.152 126.75C385.152 131.003 384.419 134.633 382.952 137.64C381.486 140.647 379.396 142.938 376.682 144.515C374.006 146.055 370.871 146.825 367.277 146.825ZM367.277 145.725C368.707 145.725 370.027 145.12 371.237 143.91C372.484 142.7 373.511 140.683 374.317 137.86C375.124 135.037 375.527 131.333 375.527 126.75C375.527 122.167 375.124 118.463 374.317 115.64C373.511 112.817 372.484 110.8 371.237 109.59C370.027 108.38 368.707 107.775 367.277 107.775C365.847 107.775 364.509 108.38 363.262 109.59C362.052 110.8 361.044 112.817 360.237 115.64C359.431 118.463 359.027 122.167 359.027 126.75C359.027 131.333 359.431 135.037 360.237 137.86C361.044 140.683 362.052 142.7 363.262 143.91C364.509 145.12 365.847 145.725 367.277 145.725ZM365.737 104.75L367.937 96.5H375.087L367.662 104.75H365.737ZM388.766 144.625L409.171 108.875H394.816C394.816 111.112 394.211 113.257 393.001 115.31C392.488 116.153 391.901 116.85 391.241 117.4H389.591V107.5H419.291V108.875L398.941 144.625H413.791C413.791 142.315 414.378 140.17 415.551 138.19C416.064 137.347 416.669 136.65 417.366 136.1H419.016V146H388.766V144.625ZM404.056 104.2C402.956 104.2 402.039 103.833 401.306 103.1C400.573 102.367 400.206 101.45 400.206 100.35C400.206 99.25 400.573 98.3333 401.306 97.6C402.039 96.8667 402.956 96.5 404.056 96.5C405.156 96.5 406.073 96.8667 406.806 97.6C407.539 98.3333 407.906 99.25 407.906 100.35C407.906 101.45 407.539 102.367 406.806 103.1C406.073 103.833 405.156 104.2 404.056 104.2ZM432.203 145.175L435.503 144.35V131.7L424.228 109.15L421.478 108.325V107.5H428.353C430.26 107.5 431.781 107.903 432.918 108.71C434.091 109.517 435.045 110.672 435.778 112.175L443.918 128.4L452.278 109.975L448.153 108.325V107.5H458.603V108.325L454.203 109.975L444.578 131.15V144.35L447.878 145.175V146H432.203V145.175ZM493.82 146.825C490.227 146.825 487.074 146.055 484.36 144.515C481.684 142.938 479.612 140.647 478.145 137.64C476.679 134.633 475.945 131.003 475.945 126.75C475.945 122.497 476.679 118.867 478.145 115.86C479.612 112.853 481.684 110.58 484.36 109.04C487.074 107.463 490.227 106.675 493.82 106.675C497.414 106.675 500.549 107.463 503.225 109.04C505.939 110.58 508.029 112.853 509.495 115.86C510.962 118.867 511.695 122.497 511.695 126.75C511.695 131.003 510.962 134.633 509.495 137.64C508.029 140.647 505.939 142.938 503.225 144.515C500.549 146.055 497.414 146.825 493.82 146.825ZM493.82 145.725C495.25 145.725 496.57 145.12 497.78 143.91C499.027 142.7 500.054 140.683 500.86 137.86C501.667 135.037 502.07 131.333 502.07 126.75C502.07 122.167 501.667 118.463 500.86 115.64C500.054 112.817 499.027 110.8 497.78 109.59C496.57 108.38 495.25 107.775 493.82 107.775C492.39 107.775 491.052 108.38 489.805 109.59C488.595 110.8 487.587 112.817 486.78 115.64C485.974 118.463 485.57 122.167 485.57 126.75C485.57 131.333 485.974 135.037 486.78 137.86C487.587 140.683 488.595 142.7 489.805 143.91C491.052 145.12 492.39 145.725 493.82 145.725ZM516.933 145.175L520.233 144.35V109.15L516.933 108.325V107.5H531.783C537.356 107.5 541.445 108.398 544.048 110.195C546.688 111.955 548.008 114.265 548.008 117.125C548.008 119.105 547.44 120.7 546.303 121.91C545.166 123.12 543.718 124.018 541.958 124.605C540.088 125.265 538.071 125.613 535.908 125.65V125.925C538.585 126.035 540.913 126.438 542.893 127.135C544.91 127.795 546.578 128.822 547.898 130.215C549.255 131.608 549.933 133.387 549.933 135.55C549.933 138.813 548.595 141.38 545.918 143.25C543.241 145.083 538.896 146 532.883 146H516.933V145.175ZM531.783 125.1C532.993 125.1 534.111 124.77 535.138 124.11C536.201 123.413 537.045 122.46 537.668 121.25C538.328 120.003 538.658 118.628 538.658 117.125C538.658 115.512 538.328 114.082 537.668 112.835C537.045 111.588 536.201 110.617 535.138 109.92C534.111 109.223 532.993 108.875 531.783 108.875H529.308V125.1H531.783ZM532.883 144.625C535.156 144.625 537.008 143.818 538.438 142.205C539.868 140.592 540.583 138.373 540.583 135.55C540.583 132.727 539.868 130.508 538.438 128.895C537.008 127.282 535.156 126.475 532.883 126.475H529.308V144.625H532.883ZM554.316 146V145.175L557.616 144.35V109.15L554.316 108.325V107.5H569.991V108.325L566.691 109.15V144.35L569.991 145.175V146H554.316ZM574.941 145.175L578.241 144.35V109.15L574.941 108.325V107.5H604.366V117.4H602.716C602.019 116.85 601.414 116.153 600.901 115.31C599.728 113.33 599.141 111.185 599.141 108.875H587.316V126.2H593.641C593.898 124.807 594.374 123.505 595.071 122.295C595.364 121.745 595.713 121.213 596.116 120.7H597.766V133.075H596.116C595.713 132.562 595.364 132.03 595.071 131.48C594.374 130.27 593.898 128.968 593.641 127.575H587.316V144.625H600.241C600.241 142.315 600.828 140.17 602.001 138.19C602.514 137.347 603.119 136.65 603.816 136.1H605.466V146H574.941V145.175ZM609.84 144.625L630.245 108.875H615.89C615.89 111.112 615.285 113.257 614.075 115.31C613.562 116.153 612.975 116.85 612.315 117.4H610.665V107.5H640.365V108.875L620.015 144.625H634.865C634.865 142.315 635.452 140.17 636.625 138.19C637.138 137.347 637.743 136.65 638.44 136.1H640.09V146H609.84V144.625ZM625.13 104.2C624.03 104.2 623.113 103.833 622.38 103.1C621.647 102.367 621.28 101.45 621.28 100.35C621.28 99.25 621.647 98.3333 622.38 97.6C623.113 96.8667 624.03 96.5 625.13 96.5C626.23 96.5 627.147 96.8667 627.88 97.6C628.613 98.3333 628.98 99.25 628.98 100.35C628.98 101.45 628.613 102.367 627.88 103.1C627.147 103.833 626.23 104.2 625.13 104.2ZM653.277 145.175L656.577 144.35V131.7L645.302 109.15L642.552 108.325V107.5H649.427C651.334 107.5 652.856 107.903 653.992 108.71C655.166 109.517 656.119 110.672 656.852 112.175L664.992 128.4L673.352 109.975L669.227 108.325V107.5H679.677V108.325L675.277 109.975L665.652 131.15V144.35L668.952 145.175V146H653.277V145.175ZM693.689 146.825C691.086 146.825 688.648 146.238 686.374 145.065C685.348 144.552 684.486 143.947 683.789 143.25C683.276 144.093 682.634 144.845 681.864 145.505C681.204 145.982 680.838 146.238 680.764 146.275H679.389V135.825H681.589C682.139 137.622 682.909 139.235 683.899 140.665C686.136 143.855 689.033 145.45 692.589 145.45C694.679 145.45 696.348 144.827 697.594 143.58C698.841 142.333 699.464 140.665 699.464 138.575C699.464 137.365 699.098 136.283 698.364 135.33C697.668 134.377 696.788 133.533 695.724 132.8C694.661 132.067 693.176 131.15 691.269 130.05C688.849 128.693 686.888 127.465 685.384 126.365C683.881 125.265 682.598 123.89 681.534 122.24C680.471 120.553 679.939 118.573 679.939 116.3C679.939 114.503 680.434 112.89 681.424 111.46C682.451 109.993 683.973 108.838 685.989 107.995C688.006 107.115 690.481 106.675 693.414 106.675C695.541 106.675 697.668 107.28 699.794 108.49C700.601 108.93 701.408 109.517 702.214 110.25C702.838 109.297 703.479 108.545 704.139 107.995C704.799 107.518 705.166 107.262 705.239 107.225H706.614V117.675H704.414C703.938 115.915 703.223 114.32 702.269 112.89C701.389 111.497 700.289 110.342 698.969 109.425C697.686 108.508 696.201 108.05 694.514 108.05C693.084 108.05 691.856 108.618 690.829 109.755C689.803 110.892 689.289 112.34 689.289 114.1C689.289 115.457 689.674 116.685 690.444 117.785C691.251 118.848 692.223 119.783 693.359 120.59C694.533 121.397 696.109 122.368 698.089 123.505C700.399 124.825 702.269 125.998 703.699 127.025C705.129 128.052 706.339 129.335 707.329 130.875C708.319 132.378 708.814 134.12 708.814 136.1C708.814 138.08 708.246 139.895 707.109 141.545C705.973 143.158 704.268 144.442 701.994 145.395C699.721 146.348 696.953 146.825 693.689 146.825ZM692.314 104.75L694.514 96.5H701.664L694.239 104.75H692.314ZM712.099 108.875L709.074 108.325V107.5H715.674C717.618 107.5 719.213 107.94 720.459 108.82C721.706 109.7 722.586 110.818 723.099 112.175L731.404 133.35L736.244 119.16L732.174 108.875L729.149 108.325V107.5H735.749C737.693 107.5 739.269 107.94 740.479 108.82C741.689 109.663 742.588 110.782 743.174 112.175L751.479 133.35L759.399 109.975L755.274 108.325V107.5H765.449V108.325L761.049 109.975L748.674 146.55H747.024L737.124 121.415L728.599 146.55H726.949L712.099 108.875ZM767.119 146V145.175L770.419 144.35V109.15L767.119 108.325V107.5H782.794V108.325L779.494 109.15V144.35L782.794 145.175V146H767.119ZM782.766 145.175L787.166 143.525L802.291 106.95H803.941L819.616 144.35L822.366 145.175V146H815.766C813.859 146 812.301 145.578 811.091 144.735C809.881 143.855 808.982 142.718 808.396 141.325L805.591 134.725H792.446L788.816 143.525L792.941 145.175V146H782.766V145.175ZM792.996 133.35H805.041L798.991 118.885L792.996 133.35ZM827.597 145.175L830.897 144.35V108.875H824.572C824.572 111.112 823.967 113.257 822.757 115.31C822.244 116.153 821.657 116.85 820.997 117.4H819.347V107.5H851.522V117.4H849.872C849.176 116.85 848.571 116.153 848.057 115.31C846.884 113.33 846.297 111.185 846.297 108.875H839.972V144.35L843.272 145.175V146H827.597V145.175Z" fill="#A7C3D4"/>
<defs>
<linearGradient id="paint0_linear_10_2" x1="426" y1="2" x2="426" y2="252" gradientUnits="userSpaceOnUse">
<stop stop-color="#A7C5D4"/>
<stop offset="0.354167" stop-color="#A7C4D4" stop-opacity="0.25"/>
<stop offset="0.416667" stop-color="#CDDEE6" stop-opacity="0.2"/>
<stop offset="0.5" stop-color="white"/>
<stop offset="0.572917" stop-color="#D6E4EB" stop-opacity="0.2"/>
<stop offset="0.65625" stop-color="#A7C4D4" stop-opacity="0.25"/>
<stop offset="1" stop-color="#A7C3D4"/>
</linearGradient>
</defs>
</svg>
